<svg width="228" height="452" viewBox="0 0 228 452" fill="none" xmlns="http://www.w3.org/2000/svg">
<path d="M192.548 0.25C211.738 0.25 227.301 15.5684 227.301 34.4727V417.387C227.301 436.291 211.738 451.609 192.548 451.609H35.0029C15.8131 451.609 0.25 436.291 0.25 417.387V34.4727C0.25 15.5685 15.8131 0.250059 35.0029 0.25H192.548Z" fill="#F9FAFB" stroke="#EFF1F4" stroke-width="0.5"/>
<path d="M169.388 18.4507C176.045 18.4363 182.728 18.3336 189.4 18.4878C198.419 18.6976 205.801 24.5205 208.337 33.1489V33.1499C208.813 34.7742 209.052 36.4585 209.047 38.1509C209.039 51.5419 209.04 64.9321 209.049 78.3208C209.049 188.645 209.053 298.972 209.061 409.302C209.061 412.09 208.921 414.915 207.832 417.631C204.94 424.84 199.641 429.156 191.989 430.542L191.99 430.542C190.627 430.793 189.254 430.792 187.938 430.792H42.998C41.2406 430.792 39.4564 430.816 37.6797 430.755V430.754C28.1294 430.451 20.2682 423.728 18.4424 414.405L18.3594 413.958C18.1164 412.553 18.0947 411.156 18.0947 409.795C18.0911 368.299 18.0898 326.806 18.0918 285.317V224.723C18.0915 224.717 18.0898 224.71 18.0898 224.704C18.0898 167.937 18.0902 111.171 18.0918 54.4048C18.0918 48.8426 18.0148 43.2535 18.1523 37.6763C18.3741 28.7266 25.1034 20.8076 33.8535 18.9478L34.4424 18.8296C35.8189 18.5719 37.2168 18.4414 38.6182 18.4399C44.8435 18.4411 51.0683 18.4395 57.292 18.4351V18.436C58.2061 18.4337 59.1562 18.5775 59.917 19.3237L60.0664 19.481C60.6439 20.1332 60.8386 20.9001 60.8535 21.686C60.8802 23.0185 60.9055 24.2972 61.1797 25.5356C62.2175 30.22 66.2449 33.5613 71.0557 33.5991C78.7224 33.6604 86.3894 33.6204 94.0635 33.6216C114.304 33.6228 134.545 33.6228 154.786 33.6216C155.84 33.6216 156.827 33.6263 157.802 33.4224H157.804C162.44 32.4787 165.843 28.5158 166.068 23.8003V23.7983C166.088 23.4267 166.096 23.0541 166.105 22.6694C166.115 22.2881 166.127 21.8967 166.155 21.5044C166.221 20.6031 166.534 19.8294 167.108 19.2798C167.684 18.7284 168.471 18.4527 169.388 18.4507Z" stroke="#E1E1E1" stroke-linejoin="round"/>
<path opacity="0.4" fill-rule="evenodd" clip-rule="evenodd" d="M98.547 24.4338C98.5467 23.4675 99.3426 22.6839 100.325 22.6837L118.567 22.6792C119.549 22.6789 120.345 23.4621 120.345 24.4284C120.345 25.3947 119.549 26.1783 118.567 26.1785L100.326 26.183C99.3435 26.1833 98.5472 25.4001 98.547 24.4338Z" fill="#C8C8C8"/>
<path opacity="0.546196" fill-rule="evenodd" clip-rule="evenodd" d="M125.41 24.4259C125.41 23.4623 126.204 22.6773 127.183 22.677C128.162 22.6768 128.956 23.4615 128.956 24.425C128.957 25.3886 128.163 26.1737 127.184 26.1739C126.205 26.1741 125.411 25.3895 125.41 24.4259Z" fill="#C8C8C8"/>
</svg>
