<svg preserveAspectRatio="none" width="100%" height="100%" overflow="visible" style="display: block;" viewBox="0 0 191.99 413.392" fill="none" xmlns="http://www.w3.org/2000/svg">
<path id="Border" d="M151.817 0.546862C158.475 0.532445 165.157 0.429819 171.83 0.583971C180.848 0.793737 188.23 6.61672 190.767 15.2451V15.2461C191.243 16.8704 191.482 18.5547 191.478 20.2471L191.472 40.333C191.472 47.028 191.474 53.7226 191.479 60.417C191.479 170.741 191.482 281.069 191.49 391.398C191.49 394.186 191.35 397.011 190.262 399.728C187.369 406.936 182.071 411.252 174.419 412.638L174.42 412.639C173.057 412.889 171.684 412.888 170.367 412.888H25.4277C23.6702 412.888 21.8861 412.912 20.1094 412.852V412.851C10.559 412.547 2.69788 405.825 0.872065 396.501L0.789057 396.055C0.546089 394.649 0.524409 393.252 0.524409 391.892C0.520794 350.395 0.519471 308.902 0.521479 267.413V206.819L0.519526 206.8L0.521479 36.501C0.521479 30.9388 0.444441 25.3497 0.582026 19.7724C0.803776 10.8228 7.53305 2.90383 16.2832 1.04393L16.8721 0.925768C18.2485 0.668107 19.6465 0.537561 21.0478 0.53612C27.2731 0.537322 33.498 0.535647 39.7217 0.531237V0.532213C40.6358 0.529885 41.5859 0.673693 42.3467 1.41991L42.4961 1.57714C43.0736 2.2294 43.2683 2.9963 43.2832 3.78221C43.3099 5.11469 43.3352 6.39333 43.6094 7.63182C44.6472 12.3162 48.6746 15.6575 53.4853 15.6953C61.1521 15.7566 68.8191 15.7166 76.4932 15.7178C96.734 15.719 116.975 15.719 137.216 15.7178C138.27 15.7178 139.256 15.7225 140.231 15.5185H140.233C144.869 14.5749 148.273 10.6119 148.498 5.89647V5.89452C148.517 5.52286 148.525 5.15031 148.535 4.76561C148.545 4.38427 148.556 3.99284 148.585 3.60057C148.651 2.69927 148.964 1.92554 149.538 1.37596C150.114 0.824623 150.901 0.548889 151.817 0.546862Z" stroke="var(--stroke-0, #E1E1E1)" stroke-linejoin="round"/>
</svg>
