<svg width="726" height="350" viewBox="0 0 726 350" fill="none" xmlns="http://www.w3.org/2000/svg">
<path d="M637.696 0.25C644.31 0.250036 649.459 1.4171 652.955 4.39355C656.46 7.37802 658.25 12.1353 658.25 19.1865V320.49C658.25 328.619 656.012 332.973 652.484 335.269C648.985 337.546 644.279 337.75 639.476 337.75H105.32C96.0761 337.75 86.932 337.755 80.1064 334.552C76.6823 332.945 73.8366 330.53 71.8506 326.907C69.8668 323.289 68.75 318.482 68.75 312.106V14.1572C68.75 8.94251 70.5545 5.45501 73.0625 3.27539C75.5633 1.10229 78.7392 0.250006 81.4551 0.25H637.696Z" fill="#F9FAFB" stroke="#EFF1F4" stroke-width="0.5"/>
<path fill-rule="evenodd" clip-rule="evenodd" d="M361.819 37.9134C363.03 37.9134 364.012 38.8691 364.012 40.0481C364.012 41.227 363.03 42.1828 361.819 42.1828C360.608 42.1828 359.627 41.227 359.627 40.0481C359.627 38.8691 360.608 37.9134 361.819 37.9134Z" fill="#F2F2F2"/>
<g filter="url(#filter0_i_595_3897)">
<path fill-rule="evenodd" clip-rule="evenodd" d="M0.675167 331.449H725.326V335.39H0.675167V331.449Z" fill="white"/>
<path fill-rule="evenodd" clip-rule="evenodd" d="M0.675167 331.449H725.326V335.39H0.675167V331.449Z" fill="url(#paint0_linear_595_3897)" style="mix-blend-mode:multiply"/>
</g>
<g opacity="0.1" style="mix-blend-mode:multiply">
<path fill-rule="evenodd" clip-rule="evenodd" d="M698.333 331.448H725.322V335.389H698.333V331.448Z" fill="url(#paint1_linear_595_3897)"/>
</g>
<g opacity="0.1" style="mix-blend-mode:multiply">
<path fill-rule="evenodd" clip-rule="evenodd" d="M0.675248 331.449H27.6641V335.39H0.675248V331.449Z" fill="url(#paint2_linear_595_3897)"/>
</g>
<path fill-rule="evenodd" clip-rule="evenodd" d="M0.674454 335.388H725.326C721.043 337.991 683.056 348.672 556.645 345.897C545.481 345.897 230.866 345.569 161.933 345.569C81.9298 345.569 48.8112 345.882 18.5834 340.211C8.00125 338.226 2.70217 336.587 0.674454 335.388Z" fill="white"/>
<path fill-rule="evenodd" clip-rule="evenodd" d="M0.674454 335.388H725.326C721.043 337.991 683.056 348.672 556.645 345.897C545.481 345.897 230.866 345.569 161.933 345.569C81.9298 345.569 48.8112 345.882 18.5834 340.211C8.00125 338.226 2.70217 336.587 0.674454 335.388Z" fill="url(#paint3_linear_595_3897)" style="mix-blend-mode:multiply"/>
<path fill-rule="evenodd" clip-rule="evenodd" d="M0.674454 335.388H725.326C721.043 337.991 683.056 348.672 556.645 345.897C545.481 345.897 230.866 345.569 161.933 345.569C81.9298 345.569 48.8112 345.882 18.5834 340.211C8.00125 338.226 2.70217 336.587 0.674454 335.388Z" fill="url(#paint4_linear_595_3897)" style="mix-blend-mode:multiply"/>
<path fill-rule="evenodd" clip-rule="evenodd" d="M0.674454 335.388H725.326C721.043 337.991 683.056 348.672 556.645 345.897C545.481 345.897 230.866 345.569 161.933 345.569C81.9298 345.569 48.8112 345.882 18.5834 340.211C8.00125 338.226 2.70217 336.587 0.674454 335.388Z" fill="url(#paint5_linear_595_3897)" style="mix-blend-mode:multiply"/>
<path fill-rule="evenodd" clip-rule="evenodd" d="M0.674454 335.388H725.326C721.043 337.991 683.056 348.672 556.645 345.897C545.481 345.897 230.866 345.569 161.933 345.569C81.9298 345.569 48.8112 345.882 18.5834 340.211C8.00125 338.226 2.70217 336.587 0.674454 335.388Z" fill="url(#paint6_linear_595_3897)" style="mix-blend-mode:multiply"/>
<path fill-rule="evenodd" clip-rule="evenodd" d="M0.674454 335.388H725.326C721.043 337.991 683.056 348.672 556.645 345.897C545.481 345.897 230.866 345.569 161.933 345.569C81.9298 345.569 48.8112 345.882 18.5834 340.211C8.00125 338.226 2.70217 336.587 0.674454 335.388Z" fill="url(#paint7_linear_595_3897)"/>
<g filter="url(#filter1_i_595_3897)">
<path d="M432.154 331.446C432.154 331.446 432.154 333.674 432.154 335.059C432.154 336.439 418.734 336.7 418.66 336.701H306.993C306.94 336.7 293.499 336.44 293.499 335.059V331.446H432.154Z" fill="white"/>
</g>
<g opacity="0.07" style="mix-blend-mode:multiply">
<path fill-rule="evenodd" clip-rule="evenodd" d="M293.499 331.446H306.993V336.701C306.993 336.701 293.499 336.443 293.499 335.059C293.499 333.674 293.499 331.446 293.499 331.446Z" fill="url(#paint8_linear_595_3897)"/>
</g>
<g opacity="0.07" style="mix-blend-mode:multiply">
<path fill-rule="evenodd" clip-rule="evenodd" d="M432.156 331.446H418.662V336.701C418.662 336.701 432.156 336.443 432.156 335.059C432.156 333.674 432.156 331.446 432.156 331.446Z" fill="url(#paint9_linear_595_3897)"/>
</g>
<path d="M636.986 19.3337V310.933H88.707V19.3337H636.986Z" stroke="#E1E1E1"/>
<defs>
<filter id="filter0_i_595_3897" x="0.675171" y="331.449" width="724.651" height="3.94098" filterUnits="userSpaceOnUse" color-interpolation-filters="sRGB">
<feFlood flood-opacity="0" result="BackgroundImageFix"/>
<feBlend mode="normal" in="SourceGraphic" in2="BackgroundImageFix" result="shape"/>
<feColorMatrix in="SourceAlpha" type="matrix" values="0 0 0 0 0 0 0 0 0 0 0 0 0 0 0 0 0 0 127 0" result="hardAlpha"/>
<feOffset dy="1.53255"/>
<feComposite in2="hardAlpha" operator="arithmetic" k2="-1" k3="1"/>
<feColorMatrix type="matrix" values="0 0 0 0 0 0 0 0 0 0 0 0 0 0 0 0 0 0 0.02 0"/>
<feBlend mode="normal" in2="shape" result="effect1_innerShadow_595_3897"/>
</filter>
<filter id="filter1_i_595_3897" x="293.499" y="331.446" width="138.655" height="5.25488" filterUnits="userSpaceOnUse" color-interpolation-filters="sRGB">
<feFlood flood-opacity="0" result="BackgroundImageFix"/>
<feBlend mode="normal" in="SourceGraphic" in2="BackgroundImageFix" result="shape"/>
<feColorMatrix in="SourceAlpha" type="matrix" values="0 0 0 0 0 0 0 0 0 0 0 0 0 0 0 0 0 0 127 0" result="hardAlpha"/>
<feOffset dy="1.53255"/>
<feComposite in2="hardAlpha" operator="arithmetic" k2="-1" k3="1"/>
<feColorMatrix type="matrix" values="0 0 0 0 0 0 0 0 0 0 0 0 0 0 0 0 0 0 0.03 0"/>
<feBlend mode="normal" in2="shape" result="effect1_innerShadow_595_3897"/>
</filter>
<linearGradient id="paint0_linear_595_3897" x1="0.337891" y1="335.718" x2="725.663" y2="335.718" gradientUnits="userSpaceOnUse">
<stop stop-opacity="0.04"/>
<stop offset="1" stop-color="white" stop-opacity="0.04"/>
</linearGradient>
<linearGradient id="paint1_linear_595_3897" x1="732.498" y1="330.551" x2="697.996" y2="330.551" gradientUnits="userSpaceOnUse">
<stop/>
<stop offset="1" stop-color="white"/>
<stop offset="1" stop-color="white"/>
</linearGradient>
<linearGradient id="paint2_linear_595_3897" x1="0.337891" y1="335.718" x2="28.0015" y2="335.718" gradientUnits="userSpaceOnUse">
<stop/>
<stop offset="1" stop-color="white"/>
<stop offset="1" stop-color="white"/>
</linearGradient>
<linearGradient id="paint3_linear_595_3897" x1="0" y1="349.181" x2="726" y2="349.181" gradientUnits="userSpaceOnUse">
<stop stop-opacity="0.07"/>
<stop offset="1" stop-color="#EAEAEA" stop-opacity="0.07"/>
<stop offset="1" stop-color="white" stop-opacity="0.07"/>
</linearGradient>
<linearGradient id="paint4_linear_595_3897" x1="0" y1="349.181" x2="726" y2="349.181" gradientUnits="userSpaceOnUse">
<stop stop-opacity="0.07"/>
<stop offset="1" stop-color="#EAEAEA" stop-opacity="0.07"/>
<stop offset="1" stop-color="white" stop-opacity="0.07"/>
</linearGradient>
<linearGradient id="paint5_linear_595_3897" x1="0" y1="334.731" x2="0" y2="349.181" gradientUnits="userSpaceOnUse">
<stop stop-opacity="0.07"/>
<stop offset="1" stop-color="white" stop-opacity="0.07"/>
</linearGradient>
<linearGradient id="paint6_linear_595_3897" x1="0" y1="334.731" x2="0" y2="349.181" gradientUnits="userSpaceOnUse">
<stop stop-color="white" stop-opacity="0.05"/>
<stop offset="1" stop-opacity="0.05"/>
</linearGradient>
<linearGradient id="paint7_linear_595_3897" x1="363" y1="334.731" x2="363.255" y2="358.473" gradientUnits="userSpaceOnUse">
<stop stop-color="#EBEBEB"/>
<stop offset="1" stop-color="#585858" stop-opacity="0"/>
</linearGradient>
<linearGradient id="paint8_linear_595_3897" x1="292.824" y1="337.029" x2="307.331" y2="337.029" gradientUnits="userSpaceOnUse">
<stop/>
<stop offset="1" stop-color="white"/>
<stop offset="1" stop-color="white"/>
</linearGradient>
<linearGradient id="paint9_linear_595_3897" x1="432.493" y1="330.789" x2="418.324" y2="330.789" gradientUnits="userSpaceOnUse">
<stop/>
<stop offset="1" stop-color="white"/>
<stop offset="1" stop-color="white"/>
</linearGradient>
</defs>
</svg>
