<svg width="24" height="24" viewBox="0 0 24 24" fill="none" xmlns="http://www.w3.org/2000/svg">
<rect x="7" y="2" width="10" height="2" fill="#4669D3"/>
<rect x="5" y="4" width="2" height="2" fill="#4669D3"/>
<rect width="2" height="2" transform="matrix(-1 0 0 1 19 4)" fill="#4669D3"/>
<rect x="7" y="17" width="2" height="2" fill="#4669D3"/>
<rect x="9" y="19" width="2" height="2" fill="#4669D3"/>
<rect x="15" y="17" width="2" height="2" fill="#4669D3"/>
<rect x="13" y="19" width="2" height="2" fill="#4669D3"/>
<rect x="11" y="21" width="2" height="2" fill="#4669D3"/>
<rect x="5" y="14" width="2" height="3" fill="#4669D3"/>
<rect x="17" y="14" width="2" height="3" fill="#4669D3"/>
<rect x="3" y="6" width="2" height="8" fill="#4669D3"/>
<rect width="2" height="8" transform="matrix(-1 0 0 1 21 6)" fill="#4669D3"/>
<rect x="10" y="6" width="4" height="2" fill="#4669D3"/>
<rect x="8" y="8" width="2" height="4" fill="#4669D3"/>
<rect x="10" y="12" width="4" height="2" fill="#4669D3"/>
<rect x="14" y="8" width="2" height="4" fill="#4669D3"/>
</svg>
