<svg width="24" height="24" viewBox="0 0 24 24" fill="none" xmlns="http://www.w3.org/2000/svg">
<rect x="2" y="2" width="2" height="2" fill="#73BAFD"/>
<rect x="4" y="4" width="2" height="2" fill="#73BAFD"/>
<rect x="6" y="2" width="2" height="2" fill="#73BAFD"/>
<rect x="2" y="6" width="2" height="2" fill="#73BAFD"/>
<rect x="6" y="6" width="2" height="2" fill="#73BAFD"/>
<rect x="17" y="15" width="3" height="2" fill="#73BAFD"/>
<rect x="15" y="17" width="2" height="3" fill="#73BAFD"/>
<rect x="17" y="20" width="3" height="2" fill="#73BAFD"/>
<rect x="20" y="17" width="2" height="3" fill="#73BAFD"/>
<rect x="15" y="2" width="2" height="10" fill="#73BAFD"/>
<rect x="13" y="4" width="2" height="2" fill="#73BAFD"/>
<rect x="11" y="6" width="9" height="2" fill="#73BAFD"/>
<rect x="19" y="6" width="2" height="2" fill="#73BAFD"/>
<rect x="17" y="4" width="2" height="2" fill="#73BAFD"/>
<rect x="6" y="12" width="9" height="2" fill="#73BAFD"/>
<rect x="4" y="14" width="2" height="4" fill="#73BAFD"/>
<rect x="4" y="20" width="2" height="2" fill="#73BAFD"/>
</svg>
