<svg width="24" height="24" viewBox="0 0 24 24" fill="none" xmlns="http://www.w3.org/2000/svg">
<rect x="6" y="2" width="12" height="2" fill="#D792FF"/>
<rect x="6" y="20" width="12" height="2" fill="#D792FF"/>
<rect x="18" y="4" width="2" height="2" fill="#D792FF"/>
<rect x="4" y="18" width="2" height="2" fill="#D792FF"/>
<rect x="4" y="4" width="2" height="2" fill="#D792FF"/>
<rect x="18" y="18" width="2" height="2" fill="#D792FF"/>
<rect x="2" y="6" width="2" height="12" fill="#D792FF"/>
<rect x="20" y="6" width="2" height="12" fill="#D792FF"/>
<rect x="8" y="4" width="2" height="4" fill="#D792FF"/>
<rect x="10" y="8" width="4" height="2" fill="#D792FF"/>
<rect x="14" y="10" width="4" height="2" fill="#D792FF"/>
<rect x="18" y="8" width="2" height="2" fill="#D792FF"/>
<rect x="4" y="12" width="2" height="2" fill="#D792FF"/>
<rect x="10" y="16" width="2" height="4" fill="#D792FF"/>
<rect x="6" y="14" width="4" height="2" fill="#D792FF"/>
<rect x="14" y="16" width="2" height="4" fill="#D792FF"/>
<rect x="16" y="14" width="4" height="2" fill="#D792FF"/>
</svg>
