<svg width="24" height="24" viewBox="0 0 24 24" fill="none" xmlns="http://www.w3.org/2000/svg">
<rect x="9" y="11" width="2" height="2" fill="#FF929F"/>
<rect x="13" y="11" width="2" height="2" fill="#FF929F"/>
<rect x="7" y="7" width="10" height="2" fill="#FF929F"/>
<rect x="5" y="9" width="2" height="6" fill="#FF929F"/>
<rect x="7" y="15" width="10" height="2" fill="#FF929F"/>
<rect x="17" y="9" width="2" height="6" fill="#FF929F"/>
<rect x="11" y="5" width="2" height="2" fill="#FF929F"/>
<rect x="4" y="2" width="4" height="2" fill="#FF929F"/>
<rect x="4" y="20" width="4" height="2" fill="#FF929F"/>
<rect x="16" y="2" width="4" height="2" fill="#FF929F"/>
<rect x="16" y="20" width="4" height="2" fill="#FF929F"/>
<rect x="2" y="4" width="2" height="4" fill="#FF929F"/>
<rect x="2" y="16" width="2" height="4" fill="#FF929F"/>
<rect x="20" y="4" width="2" height="4" fill="#FF929F"/>
<rect x="20" y="16" width="2" height="4" fill="#FF929F"/>
</svg>
