<svg width="103" height="25" viewBox="0 0 103 25" fill="none" xmlns="http://www.w3.org/2000/svg">
<g clip-path="url(#clip0_627_3322)">
<path d="M5.71757 9.12839L7.67578 18.6501H8.37739L10.3356 9.12839H16.0532V24.125H12.9326V11.7572H12.231L9.50834 24.125H6.55531L3.83266 11.7572H3.13105V24.125H0V9.12839H5.71757ZM23.6347 12.3057C27.237 12.3057 29.3313 14.4378 29.3313 18.3292C29.3313 22.2207 27.2475 24.3527 23.6347 24.3527C20.022 24.3527 17.9381 22.2207 17.9381 18.3292C17.9486 14.4274 20.0324 12.3057 23.6347 12.3057ZM23.6347 21.9516C25.2578 21.9516 26.0327 21.0822 26.0327 19.1675V17.4702C26.0327 15.5555 25.2683 14.6861 23.6347 14.6861C22.0011 14.6861 21.2367 15.5555 21.2367 17.4702V19.1675C21.2472 21.0822 22.0116 21.9516 23.6347 21.9516ZM30.6089 21.8895L36.5673 14.7586H30.6927V12.5231H40.2848V14.7586L34.3264 21.8895H40.3685V24.125H30.6089V21.8895ZM42.0021 12.5231H46.4003V24.125H43.2797V14.7586H42.0021V12.5231ZM43.2797 9.12839H46.4003V11.3639H43.2797V9.12839ZM48.4632 9.12839H52.8613V24.125H49.7407V11.3639H48.4632V9.12839ZM54.9347 9.12839H59.3329V24.125H56.2123V11.3639H54.9347V9.12839ZM66.0348 12.3057C67.7731 12.3057 68.9145 13.1544 69.2496 14.6344H69.9512V12.5231H73.6687V14.7586H72.3911V21.8895H73.6687V24.125H71.8885C70.6319 24.125 69.9512 23.4523 69.9512 22.2103V22.0137H69.2496C68.9145 23.4937 67.7731 24.3424 66.0348 24.3424C63.2912 24.3424 61.3539 22.0344 61.3539 18.3189C61.3539 14.6033 63.2912 12.3057 66.0348 12.3057ZM66.9563 21.9516C68.5375 21.9516 69.2601 21.0822 69.2601 19.1675V17.4702C69.2601 15.5555 68.5375 14.6861 66.9563 14.6861C65.3751 14.6861 64.6525 15.5555 64.6525 17.4702V19.1675C64.6525 21.0822 65.3751 21.9516 66.9563 21.9516ZM85.2818 24.125H82.1612V0H85.2818V24.125ZM87.8265 12.3057H100.183V11.6123L92.1303 8.72475V6.28223L100.183 3.39468V2.69091H90.6433V0H103V4.91608L96.4447 7.1516V7.84503L103 10.0806V14.9966H87.8265V12.3057ZM87.8265 2.69091H90.6433V5.47496H87.8265V2.69091Z" fill="black"/>
</g>
<defs>
<clipPath id="clip0_627_3322">
<rect width="103" height="24.3527" fill="white"/>
</clipPath>
</defs>
</svg>
