<svg width="459" height="132" viewBox="0 0 459 132" fill="none" xmlns="http://www.w3.org/2000/svg">
<rect width="459" height="132" fill="white"/>
<path d="M122.528 86V52.882H110.522V45.4H143.292V52.882H131.286V86H122.528ZM145.12 86V44.066H153.182V60.828C154.806 57.986 158.054 56.304 162.114 56.304C168.668 56.304 172.96 61.06 172.96 67.788V86H164.84V69.586C164.84 66.048 162.578 63.496 159.214 63.496C155.676 63.496 153.182 66.222 153.182 69.992V86H145.12ZM187.716 86.464C181.162 86.464 176.87 81.65 176.87 74.98V56.768H184.99V73.182C184.99 76.72 187.252 79.272 190.616 79.272C194.154 79.272 196.648 76.488 196.648 72.776V56.768H204.71V86H196.648V81.94C195.024 84.724 191.776 86.464 187.716 86.464ZM209.316 86V56.768H217.378V60.828C219.002 57.986 222.25 56.304 226.31 56.304C232.864 56.304 237.156 61.06 237.156 67.788V86H229.036V69.586C229.036 66.048 226.774 63.496 223.41 63.496C219.872 63.496 217.378 66.222 217.378 69.992V86H209.316ZM253.129 86.464C245.067 86.464 239.905 80.432 239.905 71.384C239.905 62.394 245.067 56.304 253.303 56.304C256.725 56.304 259.857 57.638 261.713 59.842V44.066H269.775V86H261.713V82.81C259.973 85.072 256.725 86.464 253.129 86.464ZM254.985 79.504C259.277 79.504 262.119 76.256 262.119 71.384C262.119 66.454 259.277 63.206 254.985 63.206C250.751 63.206 247.851 66.454 247.851 71.384C247.851 76.256 250.751 79.504 254.985 79.504ZM287.759 86.464C277.783 86.464 272.737 78.692 272.737 71.326C272.737 63.96 277.261 56.304 287.179 56.304C297.503 56.304 301.563 63.96 301.563 70.572C301.563 71.674 301.505 72.544 301.447 73.182H280.451C281.089 77.3 283.641 79.852 287.759 79.852C291.007 79.852 293.153 78.576 293.791 76.082H301.679C300.519 82.404 294.951 86.464 287.759 86.464ZM280.625 68.02H293.559C293.269 64.772 291.065 62.22 287.179 62.22C283.699 62.22 281.437 64.25 280.625 68.02ZM304.759 86V56.768H312.821V61.64C314.387 57.986 316.591 56.768 320.187 56.768H323.435V63.496H318.621C314.619 63.496 312.821 66.802 312.821 71.79V86H304.759ZM342.003 86.464C338.407 86.464 335.217 85.072 333.477 82.81V86H325.415V44.066H333.477V59.842C335.333 57.638 338.407 56.304 341.887 56.304C350.123 56.304 355.285 62.394 355.285 71.384C355.285 80.432 350.065 86.464 342.003 86.464ZM340.147 79.504C344.439 79.504 347.281 76.256 347.281 71.384C347.281 66.454 344.439 63.206 340.147 63.206C335.913 63.206 333.013 66.454 333.013 71.384C333.013 76.256 335.913 79.504 340.147 79.504ZM372.167 86.464C363.177 86.464 356.739 80.084 356.739 71.384C356.739 62.684 363.177 56.304 372.167 56.304C381.157 56.304 387.595 62.684 387.595 71.384C387.595 80.084 381.157 86.464 372.167 86.464ZM372.167 79.504C376.517 79.504 379.475 76.198 379.475 71.384C379.475 66.512 376.517 63.206 372.167 63.206C367.817 63.206 364.859 66.512 364.859 71.384C364.859 76.198 367.817 79.504 372.167 79.504ZM390.574 86V44.066H398.636V86H390.574ZM417.28 86C410.552 86 406.144 82.172 406.144 75.386V63.496H400.576V56.768H406.144V48.126H414.264V56.768H422.094V63.496H414.264V75.038C414.264 77.88 415.714 79.214 418.324 79.214H422.094V86H417.28Z" fill="black"/>
<mask id="mask0_3386_7346" style="mask-type:alpha" maskUnits="userSpaceOnUse" x="24" y="14" width="60" height="104">
<path d="M81.4925 14.1548L44.7606 35.8541C44.4616 36.0307 44.2201 36.2908 44.0655 36.6026L25.6448 73.7664C25.1117 74.8419 25.8912 76.1047 27.0883 76.1047H43.2648L24.0934 116.709C23.6571 117.633 24.8523 118.454 25.5531 117.712L83.0609 56.7771C85.1154 54.6002 83.5775 51.0132 80.5897 51.0132H65.0527L82.996 15.5728C83.4826 14.6118 82.4182 13.608 81.4925 14.1548Z" fill="#FBD500"/>
</mask>
<g mask="url(#mask0_3386_7346)">
<path d="M81.4925 14.1548L44.7606 35.8541C44.4616 36.0307 44.2201 36.2908 44.0655 36.6026L25.6448 73.7664C25.1117 74.8419 25.8912 76.1047 27.0883 76.1047H43.2648L24.0934 116.709C23.6571 117.633 24.8523 118.454 25.5531 117.712L83.0609 56.7771C85.1154 54.6002 83.5775 51.0132 80.5897 51.0132H65.0527L82.996 15.5728C83.4826 14.6118 82.4182 13.608 81.4925 14.1548Z" fill="url(#paint0_linear_3386_7346)"/>
<path d="M69.5132 48.5439L83.9672 43.7397L90.1064 62.3396L75.6524 67.1438L69.5132 48.5439Z" fill="#FCBD15" fill-opacity="0.5"/>
<path d="M79.5063 44.502L94.7052 43.5864L95.8752 63.1448L80.6763 64.0604L79.5063 44.502Z" fill="#FCBD15" fill-opacity="0.6"/>
<path d="M51.062 30.0678L91.1875 4.00293L76.8569 40.5837H58.0481L51.062 30.0678Z" fill="#FCBD15"/>
<path d="M69.8721 73.581L18.1926 127.407L34.4934 52.8078L67.6329 45.4489L63.4233 53.9874L69.8721 73.581Z" fill="#FCBD15"/>
<path d="M64.1399 77.9726L14.5576 134.901L39.4165 59.7588L56.7059 55.0535L64.1399 77.9726Z" fill="#FBA720"/>
<path d="M54.1979 85.0743L3.28617 142.961L27.1354 64.0381L41.963 60.4019C42.2908 60.3215 42.6345 60.3357 42.9547 60.4427L56.1683 64.8628L54.1979 85.0743Z" fill="#FB8900"/>
<path d="M25.2345 75.3865L25.2345 70.1677L36.3294 68.232C36.0093 68.1249 36.6572 68.1516 36.3294 68.232L55.6898 64.6862L25.2345 75.3865Z" fill="#4F95FF"/>
<path d="M50.9856 49.442L22.5218 85.5687L26.9292 46.5124L39.381 38.7549C42.1173 37.0502 45.723 38.127 47.0852 41.0557L50.9856 49.442Z" fill="#FDE52D"/>
<path d="M45.7934 55.4273L17.461 91.9237L21.8684 52.8675L34.3329 45.102C37.0647 43.4001 40.6644 44.4703 42.0315 47.3908L45.7934 55.4273Z" fill="#FDBD00"/>
<path d="M26.4614 70.1699L45.5518 33.834L30.1965 67.5671L60.1808 63.4025L56.8607 64.3395L26.4614 113.794L55.8232 64.6519L56.8607 64.3395L26.4614 70.1699Z" fill="#FFE300"/>
<path d="M41.173 61.9827L27.629 79.9668C28.4521 77.1885 39.5642 63.4845 40.9859 61.5697L41.173 61.9827Z" fill="#FFB500"/>
<path d="M40.9997 61.5664L12.6673 98.4224L17.0748 59.3662L29.593 51.5672C32.3057 49.8772 35.8797 50.9194 37.2674 53.8051L40.9997 61.5664Z" fill="#FF9600"/>
<path d="M35.9982 52.0176C36.3212 52.2657 36.6188 52.5529 36.8832 52.8772L30.1965 67.5668L37.5913 66.5396L36.2429 68.2935L26.4614 70.1696L35.9982 52.0176Z" fill="#FFA300"/>
<path d="M35.9982 52.0176C36.3212 52.2657 36.6188 52.5529 36.8832 52.8772L30.1965 67.5668L37.5913 66.5396L36.2429 68.2935L26.4614 70.1696L35.9982 52.0176Z" fill="#FFA300"/>
<path d="M35.9982 52.0176C36.3212 52.2657 36.6188 52.5529 36.8832 52.8772L30.1965 67.5668L37.5913 66.5396L27.3898 68.4025L26.4614 70.1696L35.9982 52.0176Z" fill="#FFC100"/>
<path d="M83.5187 12.2109L43.4826 36.1187L30.4955 62.8128L26.48 71.2726L31.1183 62.8128L48.0157 40.3498C48.3328 39.9281 48.71 39.5556 49.1351 39.244L69.8416 24.067C74.5351 20.6268 80.2029 18.7721 86.0221 18.7721L83.5187 12.2109Z" fill="url(#paint1_radial_3386_7346)"/>
<path d="M52.0836 68.5049L24.9086 75.3782L24.0705 78.1875L39.9557 76.3668L20.7505 123.686L52.0836 68.5049Z" fill="#6092FF"/>
<path d="M48.7687 73.0957L42.932 76.4748L33.8403 96.186L38.6668 90.5917L48.7687 73.0957Z" fill="#264FA8"/>
<path d="M65.1212 50.8804L87.9945 7.86426L72.1244 32.5987L56.5098 55.3381L80.0614 54.3162L23.5825 119.066L23.5825 120.315L86.494 50.8804H65.1212Z" fill="url(#paint2_linear_3386_7346)"/>
<path d="M51.9855 68.1025L24.9083 75.378L24.0703 78.1874L43.3428 76.0997L51.9855 68.1025Z" fill="#264FA8"/>
<path d="M55.63 64.6823L24.4612 75.6474L21.9451 77.8258L46.7631 72.951L50.7936 69.266L23.4527 118.791C35.3891 98.2571 43.6936 85.2166 55.63 64.6823Z" fill="#4669D3"/>
<path d="M55.6295 64.6817L24.4606 75.6468L21.9445 77.8252L46.7625 72.9505L50.793 69.2654L55.6295 64.6817C67.5659 44.1474 43.693 85.216 55.6295 64.6817Z" fill="#4669D3"/>
</g>
<defs>
<linearGradient id="paint0_linear_3386_7346" x1="66.2977" y1="41.0182" x2="26.5456" y2="121.701" gradientUnits="userSpaceOnUse">
<stop stop-color="#FFCC00"/>
<stop offset="1" stop-color="#FBD500"/>
</linearGradient>
<radialGradient id="paint1_radial_3386_7346" cx="0" cy="0" r="1" gradientTransform="matrix(-46.3952 52.0399 -39.5919 -35.5445 79.4863 18.5025)" gradientUnits="userSpaceOnUse">
<stop stop-color="#FDD618"/>
<stop offset="0.6477" stop-color="#FDD929"/>
<stop offset="0.685317" stop-color="#FBF0C5"/>
<stop offset="0.749958" stop-color="#FBF2D5"/>
</radialGradient>
<linearGradient id="paint2_linear_3386_7346" x1="74.1119" y1="20.2676" x2="27.1838" y2="116.669" gradientUnits="userSpaceOnUse">
<stop offset="0.306507" stop-color="#FCFCFD"/>
<stop offset="0.453295" stop-color="#FCE356"/>
<stop offset="0.94291" stop-color="#FFE300"/>
</linearGradient>
</defs>
</svg>