<svg width="152" height="29" viewBox="0 0 152 29" fill="none" xmlns="http://www.w3.org/2000/svg">
<path d="M12.1324 5.99138H12.1348C12.9842 3.01212 16.6855 1.55786 20.4574 1.55786C23.0638 1.55786 25.4036 2.38571 27.0076 3.69999C26.0503 3.74528 25.1052 3.93373 24.2035 4.25911C25.4995 4.74244 26.6129 5.486 27.438 6.40588C26.8155 6.29839 26.1843 6.25048 25.5527 6.26282C27.1049 8.51875 27.9342 11.1961 27.9298 13.9374C27.9298 21.4116 21.8907 27.4707 14.441 27.4707C7.10611 27.4707 0.952118 21.3092 0.952118 13.9374C0.952118 12.7731 1.10628 11.571 1.40573 10.4435C1.48435 10.2068 1.5938 9.97985 1.7391 9.89671C1.921 9.7927 2.08672 10.1028 2.11331 10.2037C2.31055 10.945 2.57594 11.6662 2.90607 12.3582C2.87717 10.8131 3.53504 9.40564 4.43994 8.18842C5.04347 7.3768 5.60307 6.62474 5.86128 4.45438C5.87863 4.3086 6.01621 4.20382 6.15534 4.24944C8.11932 4.8944 9.16913 8.17566 9.00611 10.9194C10.091 11.0753 10.086 9.93809 10.086 9.93809C9.73913 8.86857 9.97037 6.88071 12.1286 5.99138H12.1324Z" fill="url(#paint0_linear_700_7444)"/>
<path opacity="0.9" d="M27.4885 10.491C27.8165 17.9343 21.7176 24.3518 14.2806 24.3518C7.31843 24.3518 1.61345 18.9528 1.09741 12.1003C1.00534 12.742 0.956924 13.3892 0.952499 14.0375C1.0053 21.3694 7.14423 27.4707 14.4413 27.4707C21.891 27.4707 27.9302 21.4116 27.9302 13.9373C27.9302 12.7464 27.7764 11.5914 27.4885 10.491Z" fill="url(#paint1_radial_700_7444)"/>
<path d="M14.1122 6.97776C13.9669 6.71986 13.296 6.33822 13.0027 6.27171C14.1126 2.70471 19.7672 1.60967 23.228 2.24071C24.6682 2.50365 26.4619 3.2909 27.0076 3.69999C25.4036 2.38571 23.0634 1.55786 20.4574 1.55786C16.6855 1.55786 12.9842 3.01211 12.1348 5.99138H12.1286C9.97038 6.88071 9.73914 8.86934 10.086 9.93847C10.419 8.66286 12.0033 7.09531 14.1122 6.97776Z" fill="url(#paint2_radial_700_7444)" style="mix-blend-mode:screen"/>
<path d="M18.0321 4.51434C15.0021 5.11252 14.012 5.30817 12.998 6.27522C14.1369 3.25034 17.0439 2.63709 20.5079 4.01593C19.6835 4.18645 18.8582 4.35272 18.0321 4.51473V4.51434Z" fill="url(#paint3_linear_700_7444)"/>
<path d="M1.68437 10.0295C0.856543 13.4298 1.4963 17.4264 5.25695 20.7803C4.13738 19.5519 2.77042 15.0163 5.78687 11.776C5.98998 11.5576 6.33953 11.718 6.35071 12.0165C6.59929 18.7507 12.0153 22.8637 18.2594 22.0946C16.3247 21.9856 9.92641 19.7371 14.686 18.8478C17.1738 18.3826 21.0744 17.6538 21.0744 14.142C21.0744 8.44954 16.6874 6.78533 14.027 7.03279C12.2064 7.20215 10.5858 8.36138 10.0871 9.93782C10.2787 10.5592 9.51519 10.9942 9.00608 10.9211C9.16949 8.17771 8.11967 4.89453 6.15531 4.24957C6.01657 4.20394 5.8786 4.30873 5.86126 4.4545C5.60304 6.62486 5.04345 7.37693 4.4403 8.18854C3.53504 9.40615 2.87717 10.8132 2.90608 12.3584C2.57595 11.6663 2.31056 10.9451 2.11332 10.2038C2.09135 10.1203 1.97072 9.88717 1.82504 9.87634C1.74604 9.87054 1.70403 9.94787 1.68437 10.0295Z" fill="url(#paint4_radial_700_7444)"/>
<path d="M13.0146 19.1922C16.6774 22.1761 24.0435 19.9389 24.0435 12.6838C21.0698 17.2063 17.2821 20.3259 13.015 19.1922H13.0146Z" fill="url(#paint5_linear_700_7444)" style="mix-blend-mode:screen"/>
<path d="M5.78691 11.776C5.82021 11.7386 5.86218 11.71 5.90908 11.6927C5.95598 11.6755 6.00643 11.6701 6.05592 11.677C3.35585 14.9811 5.53374 20.7838 7.02831 22.2094C7.11194 22.4468 5.6104 21.2122 5.40344 20.9234C4.26652 19.9555 2.63709 15.1597 5.78691 11.776Z" fill="url(#paint6_linear_700_7444)" style="mix-blend-mode:screen"/>
<path d="M14.441 19.4654C18.1045 19.4654 21.0748 17.0341 21.0748 14.0347C21.0748 11.0354 18.1045 8.604 14.441 8.604C11.3154 8.604 7.8056 10.6441 7.80714 14.114C7.80869 19.4759 13.4547 22.5607 18.2675 22.0936C17.906 22.0515 15.6507 21.9312 14.1265 20.2013C13.9889 20.0455 13.7503 19.7733 13.8586 19.5966C13.9665 19.4198 14.2641 19.4651 14.4406 19.4651L14.441 19.4654Z" fill="url(#paint7_linear_700_7444)"/>
<path opacity="0.6" d="M20.3522 11.5671L15.1092 16.6007C14.6441 16.9325 14.1488 16.9564 13.6602 16.6556L8.51782 11.5856C8.66454 11.3491 8.82949 11.1244 9.01113 10.9136L9.55068 11.4202C10.9011 12.69 11.9929 13.7158 13.5318 15.0336C14.2263 15.6282 14.4421 15.6166 15.1235 15.0336C16.884 13.5256 18.1716 12.3849 19.8454 10.885C20.0319 11.0987 20.2013 11.3269 20.3518 11.5675L20.3522 11.5671Z" fill="white"/>
<mask id="mask0_700_7444" style="mask-type:luminance" maskUnits="userSpaceOnUse" x="7" y="11" width="15" height="12">
<path d="M21.0748 14.0348C21.0748 17.0342 18.1045 19.4655 14.441 19.4655C14.2641 19.4655 13.9669 19.4199 13.8586 19.597C13.7503 19.7733 13.9889 20.0455 14.1265 20.2013C15.5586 21.8269 17.6363 22.0314 18.1816 22.0852L18.2675 22.0937C13.4547 22.5608 7.80869 19.476 7.80714 14.1141C7.80209 13.2213 8.04975 12.3454 8.52128 11.5883L13.6887 16.2972C14.0563 16.632 14.6757 16.632 15.0433 16.2972L20.3086 11.499C20.7981 12.2561 21.0748 13.1192 21.0748 14.0348Z" fill="white"/>
</mask>
<g mask="url(#mask0_700_7444)">
<path opacity="0.7" d="M6.27057 7.77124H23.038V23.0241H6.27057V7.77124Z" fill="url(#paint8_linear_700_7444)"/>
<g filter="url(#filter0_f_700_7444)">
<path fill-rule="evenodd" clip-rule="evenodd" d="M12.9009 16.3289C11.9239 15.3089 8.99802 11.9198 8.99802 11.9198L9.22424 11.9298L13.8051 15.3623C14.1481 15.6124 14.6375 15.6097 14.9774 15.3565L19.4692 11.9345L19.7074 11.9155C19.7074 11.9155 16.877 15.2242 15.7929 16.3142C14.7088 17.4043 13.8779 17.349 12.9009 16.3289Z" fill="#458FCD"/>
</g>
</g>
<path d="M15.3717 5.88737C16.0816 5.6631 16.0192 4.95821 16.0192 4.95821C16.0192 4.95821 15.6642 4.53868 14.9609 4.77107C14.3026 4.98876 14.2005 5.45933 14.2005 5.45933C14.2005 5.45933 14.56 6.14373 15.3717 5.88737Z" fill="white"/>
<path d="M126.693 7.68945C126.32 7.68945 125.999 7.82479 125.729 8.09545C125.472 8.35324 125.344 8.66258 125.344 9.02345C125.344 9.38437 125.472 9.70012 125.729 9.97079C125.999 10.2415 126.32 10.3768 126.693 10.3768C127.052 10.3768 127.361 10.2415 127.618 9.97079C127.875 9.70012 128.003 9.38437 128.003 9.02345C128.003 8.66258 127.875 8.35324 127.618 8.09545C127.361 7.82479 127.052 7.68945 126.693 7.68945ZM48.5371 8.36612V21.8801H50.888V15.8288C50.888 15.223 51.1192 14.7139 51.5817 14.3015C52.0569 13.8761 52.635 13.6635 53.316 13.6635C53.9326 13.6635 54.4337 13.8826 54.819 14.3208C55.2044 14.7461 55.3971 15.3004 55.3971 15.9835V21.8801H57.6902V15.5195C57.6902 14.7719 57.5295 14.1081 57.2085 13.5281C56.9002 12.9352 56.4631 12.4777 55.8982 12.1555C55.3455 11.8204 54.7096 11.6528 53.9904 11.6528C53.3353 11.6528 52.7314 11.801 52.1791 12.0975C51.6264 12.381 51.1963 12.7612 50.888 13.2381V8.36612H48.5371ZM89.855 8.36612V13.4508C89.4696 12.8837 88.9751 12.4455 88.3712 12.1361C87.7804 11.8139 87.1252 11.6528 86.4057 11.6528C85.532 11.6528 84.7485 11.8784 84.0548 12.3295C83.3611 12.7677 82.8149 13.3864 82.4168 14.1855C82.0187 14.9717 81.8195 15.8675 81.8195 16.8728C81.8195 17.8781 82.0187 18.7804 82.4168 19.5795C82.8149 20.3786 83.3611 21.0037 84.0548 21.4548C84.7485 21.893 85.532 22.1121 86.4057 22.1121C87.1252 22.1121 87.7804 21.9575 88.3712 21.6481C88.9751 21.3259 89.4696 20.8812 89.855 20.3141V21.8801H92.2059V8.36612H89.855ZM113.36 8.36612V21.8801H115.711V20.3141C116.097 20.8812 116.584 21.3259 117.176 21.6481C117.779 21.9575 118.441 22.1121 119.16 22.1121C120.034 22.1121 120.818 21.893 121.511 21.4548C122.205 21.0037 122.751 20.3786 123.149 19.5795C123.547 18.7804 123.747 17.8781 123.747 16.8728C123.747 15.8675 123.547 14.9717 123.149 14.1855C122.751 13.3864 122.205 12.7677 121.511 12.3295C120.818 11.8784 120.034 11.6528 119.16 11.6528C118.441 11.6528 117.779 11.8139 117.176 12.1361C116.584 12.4455 116.097 12.8837 115.711 13.4508V8.36612H113.36ZM144.836 8.36612V13.4508C144.451 12.8837 143.956 12.4455 143.353 12.1361C142.762 11.8139 142.107 11.6528 141.387 11.6528C140.513 11.6528 139.73 11.8784 139.036 12.3295C138.342 12.7677 137.796 13.3864 137.398 14.1855C137 14.9717 136.801 15.8675 136.801 16.8728C136.801 17.8781 137 18.7804 137.398 19.5795C137.796 20.3786 138.342 21.0037 139.036 21.4548C139.73 21.893 140.513 22.1121 141.387 22.1121C142.107 22.1121 142.762 21.9575 143.353 21.6481C143.956 21.3259 144.451 20.8812 144.836 20.3141V21.8801H147.187V8.36612H144.836ZM35.671 8.59812V10.8021H39.9104V21.8801H42.3191V10.8021H46.5392V8.59812H35.671ZM149.75 11.3173C149.575 11.3173 149.414 11.3607 149.265 11.4473C149.12 11.5339 149.002 11.652 148.914 11.8017C148.827 11.9487 148.785 12.1088 148.785 12.282C148.785 12.4553 148.827 12.6167 148.914 12.7663C149.002 12.9134 149.12 13.0314 149.265 13.1207C149.414 13.2073 149.575 13.2506 149.75 13.2506C149.922 13.2506 150.081 13.2073 150.227 13.1207C150.376 13.0314 150.493 12.9134 150.579 12.7663C150.667 12.6167 150.712 12.4553 150.712 12.282C150.712 12.1088 150.667 11.9487 150.579 11.8017C150.493 11.652 150.376 11.5339 150.227 11.4473C150.081 11.3607 149.922 11.3173 149.75 11.3173ZM149.75 11.4591C149.898 11.4591 150.035 11.4958 150.161 11.5693C150.285 11.6428 150.384 11.7425 150.458 11.8685C150.533 11.9946 150.571 12.1324 150.571 12.282C150.571 12.4317 150.534 12.5708 150.462 12.6995C150.389 12.8254 150.288 12.9252 150.161 12.9987C150.035 13.0722 149.898 13.1089 149.75 13.1089C149.602 13.1089 149.463 13.0722 149.336 12.9987C149.211 12.9225 149.11 12.8214 149.035 12.6954C148.962 12.5694 148.925 12.4317 148.925 12.282C148.925 12.1324 148.962 11.9946 149.035 11.8685C149.11 11.7425 149.211 11.6428 149.336 11.5693C149.463 11.4958 149.602 11.4591 149.75 11.4591ZM76.4991 11.6528C75.8439 11.6528 75.24 11.7946 74.6877 12.0781C74.1482 12.3488 73.7242 12.7226 73.4159 13.1995V11.8848H71.065V21.8801H73.4159V15.8288C73.4159 15.223 73.6472 14.7139 74.1096 14.3015C74.5721 13.8761 75.1436 13.6635 75.8246 13.6635C76.4413 13.6635 76.9423 13.8826 77.3277 14.3208C77.7258 14.7461 77.925 15.3004 77.925 15.9835V21.8801H80.2182V15.5195C80.2182 14.7719 80.0574 14.1081 79.7364 13.5281C79.4281 12.9352 78.9911 12.4777 78.4261 12.1555C77.8607 11.8204 77.2182 11.6528 76.4991 11.6528ZM99.1403 11.6528C98.2026 11.6528 97.3417 11.8784 96.5582 12.3295C95.7874 12.7806 95.1773 13.3992 94.7275 14.1855C94.2778 14.9717 94.0531 15.861 94.0531 16.8535C94.0531 17.8588 94.2843 18.761 94.7468 19.5601C95.222 20.3592 95.8579 20.9844 96.6545 21.4355C97.4511 21.8866 98.3244 22.1121 99.2752 22.1121C100.007 22.1121 100.759 21.9704 101.53 21.6868C102.301 21.3904 102.898 21.0166 103.322 20.5655L101.973 19.1735C101.652 19.4828 101.234 19.7341 100.72 19.9275C100.219 20.1208 99.7118 20.2175 99.1981 20.2175C98.44 20.2175 97.8041 19.979 97.2904 19.5021C96.7767 19.0124 96.4552 18.3679 96.3269 17.5688H104.035C104.035 15.7386 103.598 14.295 102.724 13.2381C101.864 12.1812 100.669 11.6528 99.1403 11.6528ZM111.632 11.6528C110.835 11.6528 110.122 11.8461 109.493 12.2328C108.863 12.6066 108.388 13.1221 108.067 13.7795V11.8848H105.716V21.8801H108.067V16.8341C108.067 15.8804 108.394 15.1135 109.05 14.5335C109.705 13.9535 110.565 13.6635 111.632 13.6635V11.6528ZM136.064 11.6528C135.268 11.6528 134.555 11.8461 133.925 12.2328C133.296 12.6066 132.821 13.1221 132.499 13.7795V11.8848H130.148V21.8801H132.499V16.8341C132.499 15.8804 132.827 15.1135 133.482 14.5335C134.137 13.9535 134.998 13.6635 136.064 13.6635V11.6528ZM149.273 11.6953V12.8766H149.566V12.5183H149.746L149.996 12.8766H150.29L150.016 12.4828C150.094 12.454 150.155 12.4067 150.199 12.3411C150.246 12.2728 150.27 12.1941 150.27 12.1049C150.27 11.9815 150.228 11.883 150.145 11.8096C150.064 11.7334 149.957 11.6953 149.824 11.6953H149.273ZM59.6361 11.8848V18.2455C59.6361 18.993 59.7903 19.6632 60.0986 20.2561C60.4196 20.8361 60.8563 21.2937 61.4089 21.6288C61.9739 21.951 62.6164 22.1121 63.3359 22.1121C63.9911 22.1121 64.5884 21.9768 65.128 21.7061C65.6803 21.4226 66.1108 21.0424 66.4191 20.5655V21.8801H68.7892V11.8848H66.4191V17.9361C66.4191 18.5419 66.1878 19.0575 65.7254 19.4828C65.2629 19.8952 64.691 20.1015 64.0103 20.1015C63.3937 20.1015 62.8861 19.8888 62.488 19.4635C62.1026 19.0252 61.9099 18.4646 61.9099 17.7815V11.8848H59.6361ZM125.517 11.8848V21.8801H127.868V11.8848H125.517ZM149.566 11.9868H149.793C149.843 11.9868 149.883 11.9985 149.914 12.0222C149.945 12.0432 149.961 12.0707 149.961 12.1049C149.961 12.1416 149.945 12.1718 149.914 12.1954C149.883 12.2164 149.843 12.2269 149.793 12.2269H149.566V11.9868ZM99.1788 13.5475C99.8984 13.5475 100.476 13.773 100.913 14.2241C101.363 14.6752 101.645 15.2681 101.761 16.0028H96.3462C96.5003 15.2552 96.8345 14.6624 97.3482 14.2241C97.8619 13.773 98.4724 13.5475 99.1788 13.5475ZM87.0416 13.6635C87.8636 13.6635 88.5381 13.9664 89.0649 14.5721C89.5917 15.165 89.855 15.9319 89.855 16.8728C89.855 17.4915 89.7328 18.0457 89.4888 18.5355C89.2576 19.0252 88.9235 19.4119 88.4868 19.6955C88.0629 19.9661 87.5811 20.1015 87.0416 20.1015C86.1937 20.1015 85.5 19.7986 84.9604 19.1928C84.4209 18.587 84.1511 17.8137 84.1511 16.8728C84.1511 15.9319 84.4209 15.165 84.9604 14.5721C85.5 13.9664 86.1937 13.6635 87.0416 13.6635ZM118.525 13.6635C119.372 13.6635 120.066 13.9664 120.606 14.5721C121.145 15.165 121.415 15.9319 121.415 16.8728C121.415 17.8137 121.145 18.587 120.606 19.1928C120.066 19.7986 119.372 20.1015 118.525 20.1015C117.985 20.1015 117.497 19.9661 117.06 19.6955C116.636 19.4119 116.302 19.0252 116.058 18.5355C115.827 18.0457 115.711 17.4915 115.711 16.8728C115.711 15.9319 115.974 15.165 116.501 14.5721C117.028 13.9664 117.702 13.6635 118.525 13.6635ZM142.023 13.6635C142.845 13.6635 143.519 13.9664 144.046 14.5721C144.573 15.165 144.836 15.9319 144.836 16.8728C144.836 17.4915 144.714 18.0457 144.47 18.5355C144.239 19.0252 143.905 19.4119 143.468 19.6955C143.044 19.9661 142.562 20.1015 142.023 20.1015C141.175 20.1015 140.481 19.7986 139.942 19.1928C139.402 18.587 139.132 17.8137 139.132 16.8728C139.132 15.9319 139.402 15.165 139.942 14.5721C140.481 13.9664 141.175 13.6635 142.023 13.6635Z" fill="black"/>
<defs>
<filter id="filter0_f_700_7444" x="-23.002" y="-20.0845" width="74.7094" height="69.1975" filterUnits="userSpaceOnUse" color-interpolation-filters="sRGB">
<feFlood flood-opacity="0" result="BackgroundImageFix"/>
<feBlend mode="normal" in="SourceGraphic" in2="BackgroundImageFix" result="shape"/>
<feGaussianBlur stdDeviation="16" result="effect1_foregroundBlur_700_7444"/>
</filter>
<linearGradient id="paint0_linear_700_7444" x1="5.6339" y1="6.01844" x2="24.7076" y2="23.751" gradientUnits="userSpaceOnUse">
<stop stop-color="#1B91F3"/>
<stop offset="1" stop-color="#0B68CB"/>
</linearGradient>
<radialGradient id="paint1_radial_700_7444" cx="0" cy="0" r="1" gradientTransform="matrix(4.54497 10.496 -10.0218 4.36827 5.5988 12.1413)" gradientUnits="userSpaceOnUse">
<stop offset="0.53" stop-color="#0B4186" stop-opacity="0"/>
<stop offset="1" stop-color="#0B4186" stop-opacity="0.45"/>
</radialGradient>
<radialGradient id="paint2_radial_700_7444" cx="0" cy="0" r="1" gradientTransform="matrix(-1.50113 -1.92791 3.17976 -2.49223 14.7878 7.44138)" gradientUnits="userSpaceOnUse">
<stop stop-color="#EF3ACC" stop-opacity="0"/>
<stop offset="1" stop-color="#EF3ACC" stop-opacity="0.64"/>
</radialGradient>
<linearGradient id="paint3_linear_700_7444" x1="10.925" y1="10.5738" x2="17.7923" y2="2.95421" gradientUnits="userSpaceOnUse">
<stop stop-color="#0F5DB0"/>
<stop offset="1" stop-color="#0F5DB0" stop-opacity="0"/>
</linearGradient>
<radialGradient id="paint4_radial_700_7444" cx="0" cy="0" r="1" gradientTransform="matrix(7.72719 -16.0819 19.8005 9.57684 9.35371 21.3112)" gradientUnits="userSpaceOnUse">
<stop offset="0.02" stop-color="#094188"/>
<stop offset="0.97" stop-color="#0B4186" stop-opacity="0"/>
</radialGradient>
<linearGradient id="paint5_linear_700_7444" x1="22.9166" y1="16.107" x2="19.7171" y2="23.937" gradientUnits="userSpaceOnUse">
<stop stop-color="#E247C4" stop-opacity="0"/>
<stop offset="1" stop-color="#E247C4" stop-opacity="0.64"/>
</linearGradient>
<linearGradient id="paint6_linear_700_7444" x1="3.18782" y1="9.0786" x2="6.00822" y2="20.3928" gradientUnits="userSpaceOnUse">
<stop offset="0.1" stop-color="#EF3ACC"/>
<stop offset="1" stop-color="#EF3ACC" stop-opacity="0"/>
</linearGradient>
<linearGradient id="paint7_linear_700_7444" x1="14.441" y1="10.5926" x2="14.441" y2="22.0379" gradientUnits="userSpaceOnUse">
<stop stop-color="white"/>
<stop offset="0.91" stop-color="#BEE1FE"/>
<stop offset="1" stop-color="#96CEFD"/>
</linearGradient>
<linearGradient id="paint8_linear_700_7444" x1="14.6545" y1="17.0694" x2="14.6545" y2="21.8641" gradientUnits="userSpaceOnUse">
<stop stop-color="#BCE0FD"/>
<stop offset="1" stop-color="#88CCFC"/>
</linearGradient>
</defs>
</svg>
