<svg xmlns="http://www.w3.org/2000/svg" width="32" height="32" fill="none" viewBox="0 0 32 32"><g clip-path="url(#a)"><g clip-path="url(#b)"><mask id="c" width="17" height="29" x="7" y="1" maskUnits="userSpaceOnUse" style="mask-type:alpha"><path fill="#fbd500" d="M23.296 1.48 13.172 7.44a.5.5 0 0 0-.191.205L7.904 17.852a.444.444 0 0 0 .398.642h4.458L7.477 29.645c-.12.254.209.48.402.276l15.849-16.735c.566-.598.142-1.583-.681-1.583h-4.282l4.945-9.734c.134-.263-.16-.54-.414-.389"/></mask><g mask="url(#c)"><path fill="url(#d)" d="M23.296 1.48 13.172 7.44a.5.5 0 0 0-.191.205L7.904 17.852a.444.444 0 0 0 .398.642h4.458L7.477 29.645c-.12.254.209.48.402.276l15.849-16.735c.566-.598.142-1.583-.681-1.583h-4.282L23.71 1.87c.134-.264-.16-.54-.414-.39"/><path fill="#fcbd15" fill-opacity=".5" d="m19.994 10.925 3.984-1.32 1.692 5.109-3.984 1.32z"/><path fill="#fcbd15" fill-opacity=".6" d="m22.748 9.815 4.19-.252.322 5.372-4.19.251z"/><path fill="#fcbd15" d="m14.91 5.85 11.058-7.158-3.95 10.046h-5.184zM20.093 17.8 5.85 32.584l4.492-20.487 9.134-2.022-1.16 2.345z"/><path fill="#fba720" d="M18.513 19.007 4.848 34.642 11.7 14.005l4.765-1.293z"/><path fill="#fb8900" d="M15.773 20.957 1.742 36.855 8.315 15.18l4.086-.999a.5.5 0 0 1 .273.011l3.642 1.214z"/><path fill="#fa4f00" d="M7.791 18.297v-1.434l3.058-.531c-.088-.03.09-.022 0 0l5.336-.974z"/><path fill="#f95200" d="M12.243 24.71-.235 38.79l6.233-19.015 6.222-1.074a.494.494 0 0 1 .575.536z"/><path fill="#fde52d" d="m14.888 11.171-7.845 9.922 1.215-10.726 3.432-2.13a1.48 1.48 0 0 1 2.123.631z"/><path fill="#fdbd00" d="M13.457 12.815 5.65 22.84l1.214-10.727L10.3 9.98a1.48 1.48 0 0 1 2.121.63z"/><path fill="url(#e)" d="M18.701 11.546 25.005-.268 20.63 6.525l-4.303 6.245 6.49-.28L7.254 30.271v.343l17.338-19.07z"/><path fill="#ffe300" d="m8.13 16.864 5.26-9.98L9.16 16.15l8.263-1.144-.915.258L8.13 28.845l8.092-13.496.286-.086z"/><path fill="#ffb500" d="m12.184 14.615-3.733 4.94c.227-.764 3.29-4.527 3.681-5.053z"/><path fill="#ff9600" d="M12.136 14.501 4.328 24.623l1.214-10.726 3.45-2.142a1.48 1.48 0 0 1 2.115.614z"/><path fill="#ffa300" d="M10.758 11.879q.133.102.243.236L9.16 16.149l2.037-.282-.371.482-2.696.515z"/><path fill="#ffa300" d="M10.758 11.879q.133.102.243.236L9.16 16.149l2.037-.282-.371.482-2.696.515z"/><path fill="#ffc100" d="M10.758 11.879q.133.102.243.236L9.16 16.149l2.037-.282-2.811.512-.256.485z"/><path fill="url(#f)" d="M23.895.988 12.861 7.554l-3.579 7.33-1.106 2.324 1.278-2.323 4.657-6.17a1.5 1.5 0 0 1 .308-.303l5.886-4.3A6.88 6.88 0 0 1 24.36 2.79h.225z"/><path fill="#6a00b1" d="m15.19 16.407-7.489 1.887-.23.772 4.377-.5L6.555 31.56z"/><path fill="#3b008b" d="m14.277 17.668-1.609.928-2.505 5.413 1.33-1.536zM15.164 16.296 7.7 18.294l-.23.772 5.31-.573z"/><path fill="#ce00cb" d="m16.168 15.357-8.59 3.011-.694.599 6.84-1.34 1.111-1.011L7.3 30.217c3.29-5.64 5.578-9.22 8.868-14.86"/><path fill="#bf00b1" d="m16.168 15.357-8.59 3.011-.694.599 6.84-1.34 1.111-1.011zc3.29-5.639-3.29 5.64 0 0"/></g></g></g><defs><linearGradient id="d" x1="19.108" x2="8.214" y1="8.858" y2="31.047" gradientUnits="userSpaceOnUse"><stop stop-color="#fc0"/><stop offset="1" stop-color="#fbd500"/></linearGradient><linearGradient id="e" x1="21.179" x2="8.318" y1="3.138" y2="29.649" gradientUnits="userSpaceOnUse"><stop offset=".307" stop-color="#fcfcfd"/><stop offset=".453" stop-color="#fce356"/><stop offset=".943" stop-color="#ffe300"/></linearGradient><clipPath id="a"><path fill="#fff" d="M0 0h32v32H0z"/></clipPath><clipPath id="b"><path fill="#fff" d="M1.75 1.75h28.563v28.563H1.75z"/></clipPath><radialGradient id="f" cx="0" cy="0" r="1" gradientTransform="rotate(131.817 10.785 6.452)scale(19.1771 14.6409)" gradientUnits="userSpaceOnUse"><stop stop-color="#fdd618"/><stop offset=".648" stop-color="#fdd929"/><stop offset=".685" stop-color="#fbf0c5"/><stop offset=".75" stop-color="#fbf2d5"/></radialGradient></defs></svg>