<svg width="128" height="128" viewBox="0 0 128 128" fill="none" xmlns="http://www.w3.org/2000/svg">
<g clip-path="url(#clip0_3_16)">
<path d="M26.0417 73.6458C25.1408 73.6489 24.2576 73.3963 23.4946 72.9174C22.7316 72.4385 22.1202 71.7529 21.7313 70.9403C21.3425 70.1277 21.1922 69.2214 21.2979 68.3268C21.4036 67.4322 21.761 66.5859 22.3285 65.8863L69.4567 17.3301C69.8102 16.922 70.2919 16.6463 70.8228 16.5481C71.3537 16.4499 71.9022 16.5352 72.3783 16.7898C72.8543 17.0444 73.2297 17.4534 73.4427 17.9495C73.6558 18.4455 73.6938 18.9993 73.5506 19.5199L64.4106 48.1776C64.1411 48.8989 64.0506 49.6748 64.1469 50.4388C64.2431 51.2028 64.5233 51.932 64.9633 52.564C65.4033 53.1959 65.99 53.7116 66.6731 54.067C67.3563 54.4223 68.1154 54.6067 68.8854 54.6042H102.208C103.109 54.6011 103.992 54.8537 104.755 55.3326C105.518 55.8115 106.13 56.4971 106.519 57.3097C106.908 58.1223 107.058 59.0286 106.952 59.9232C106.846 60.8178 106.489 61.6641 105.921 62.3636L58.7933 110.92C58.4398 111.328 57.9581 111.604 57.4272 111.702C56.8963 111.8 56.3478 111.715 55.8717 111.46C55.3956 111.206 55.0203 110.797 54.8073 110.301C54.5942 109.804 54.5562 109.251 54.6994 108.73L63.8394 80.0724C64.1089 79.3511 64.1994 78.5751 64.1031 77.8112C64.0069 77.0472 63.7267 76.3179 63.2867 75.686C62.8467 75.0541 62.26 74.5383 61.5769 74.183C60.8937 73.8276 60.1346 73.6433 59.3646 73.6458H26.0417Z" fill="#F1B100" stroke="black" stroke-width="6" stroke-linecap="round" stroke-linejoin="round"/>
</g>
<defs>
<clipPath id="clip0_3_16">
<rect width="128" height="128" fill="white"/>
</clipPath>
</defs>
</svg>
