<svg width="196" height="196" viewBox="0 0 196 196" fill="none" xmlns="http://www.w3.org/2000/svg">
<g clip-path="url(#clip0_3_15)">
<path d="M39.8763 112.77C38.4969 112.775 37.1445 112.388 35.9762 111.655C34.8078 110.921 33.8716 109.872 33.2761 108.627C32.6807 107.383 32.4506 105.995 32.6124 104.625C32.7743 103.256 33.3216 101.96 34.1906 100.889L106.356 26.5367C106.897 25.9119 107.635 25.4897 108.447 25.3393C109.26 25.189 110.1 25.3195 110.829 25.7094C111.558 26.0993 112.133 26.7255 112.459 27.4852C112.785 28.2448 112.844 29.0928 112.624 29.8899L98.6288 73.772C98.2161 74.8765 98.0775 76.0646 98.2249 77.2345C98.3723 78.4043 98.8013 79.521 99.475 80.4886C100.149 81.4563 101.047 82.246 102.093 82.7901C103.139 83.3342 104.302 83.6165 105.481 83.6127H156.507C157.886 83.608 159.238 83.9947 160.407 84.7281C161.575 85.4614 162.511 86.5112 163.107 87.7555C163.702 88.9998 163.932 90.3875 163.77 91.7574C163.609 93.1273 163.061 94.4231 162.192 95.4944L90.0273 169.846C89.486 170.471 88.7483 170.893 87.9354 171.044C87.1225 171.194 86.2826 171.063 85.5536 170.673C84.8246 170.284 84.2498 169.657 83.9236 168.898C83.5974 168.138 83.5392 167.29 83.7584 166.493L97.7541 122.611C98.1667 121.506 98.3053 120.318 98.158 119.148C98.0106 117.979 97.5816 116.862 96.9078 115.894C96.2341 114.927 95.3356 114.137 94.2896 113.593C93.2435 113.049 92.0811 112.766 90.902 112.77H39.8763Z" fill="#F1B100" stroke="black" stroke-width="9.1875" stroke-linecap="round" stroke-linejoin="round"/>
</g>
<defs>
<clipPath id="clip0_3_15">
<rect width="196" height="196" fill="white"/>
</clipPath>
</defs>
</svg>
