<svg width="96" height="96" viewBox="0 0 96 96" fill="none" xmlns="http://www.w3.org/2000/svg">
<g clip-path="url(#clip0_3_17)">
<path d="M19.5313 55.2344C18.8556 55.2367 18.1932 55.0473 17.621 54.6881C17.0487 54.3289 16.5901 53.8147 16.2985 53.2052C16.0069 52.5958 15.8941 51.9161 15.9734 51.2451C16.0527 50.5742 16.3208 49.9395 16.7464 49.4148L52.0925 12.9976C52.3576 12.6916 52.7189 12.4847 53.1171 12.4111C53.5153 12.3375 53.9267 12.4014 54.2837 12.5924C54.6408 12.7834 54.9223 13.0901 55.082 13.4621C55.2418 13.8342 55.2703 14.2495 55.163 14.6399L48.308 36.1332C48.1058 36.6742 48.0379 37.2562 48.1101 37.8291C48.1823 38.4021 48.3924 38.9491 48.7224 39.423C49.0525 39.8969 49.4925 40.2838 50.0048 40.5503C50.5172 40.8168 51.0865 40.955 51.6641 40.9531H76.6562C77.3319 40.9508 77.9943 41.1403 78.5665 41.4995C79.1388 41.8587 79.5973 42.3729 79.889 42.9823C80.1806 43.5918 80.2933 44.2714 80.2141 44.9424C80.1348 45.6134 79.8667 46.2481 79.4411 46.7728L44.095 83.1899C43.8299 83.496 43.4686 83.7028 43.0704 83.7764C42.6722 83.8501 42.2608 83.7861 41.9038 83.5952C41.5467 83.4042 41.2652 83.0975 41.1054 82.7254C40.9457 82.3534 40.9171 81.938 41.0245 81.5476L47.8795 60.0543C48.0817 59.5133 48.1495 58.9314 48.0774 58.3584C48.0052 57.7854 47.7951 57.2385 47.465 56.7645C47.135 56.2906 46.695 55.9038 46.1826 55.6373C45.6703 55.3708 45.1009 55.2325 44.5234 55.2344H19.5313Z" fill="#F1B100" stroke="black" stroke-width="4.5" stroke-linecap="round" stroke-linejoin="round"/>
</g>
<defs>
<clipPath id="clip0_3_17">
<rect width="96" height="96" fill="white"/>
</clipPath>
</defs>
</svg>
