<svg width="16" height="16" viewBox="0 0 16 16" fill="none" xmlns="http://www.w3.org/2000/svg">
<g clip-path="url(#clip0_3_21)">
<g clip-path="url(#clip1_3_21)">
<path d="M3.25521 9.20571C3.1426 9.2061 3.0322 9.17452 2.93683 9.11466C2.84145 9.05479 2.76502 8.96909 2.71642 8.86752C2.66781 8.76594 2.64902 8.65266 2.66224 8.54084C2.67545 8.42901 2.72013 8.32323 2.79107 8.23578L8.68208 2.16625C8.72627 2.11524 8.78649 2.08077 8.85285 2.0685C8.91921 2.05623 8.98778 2.06688 9.04728 2.09871C9.10679 2.13054 9.15371 2.18166 9.18034 2.24367C9.20697 2.30568 9.21173 2.3749 9.19383 2.43997L8.05133 6.02218C8.01764 6.11235 8.00632 6.20934 8.01836 6.30484C8.03039 6.40034 8.06541 6.49149 8.12041 6.57048C8.17541 6.64947 8.24875 6.71394 8.33414 6.75836C8.41953 6.80278 8.51442 6.82582 8.61068 6.8255H12.776C12.8886 6.82512 12.999 6.8567 13.0944 6.91656C13.1898 6.97643 13.2662 7.06212 13.3148 7.1637C13.3634 7.26527 13.3822 7.37855 13.369 7.49038C13.3558 7.60221 13.3111 7.70799 13.2402 7.79544L7.34917 13.865C7.30498 13.916 7.24476 13.9504 7.1784 13.9627C7.11204 13.975 7.04347 13.9643 6.98396 13.9325C6.92446 13.9007 6.87754 13.8496 6.85091 13.7875C6.82428 13.7255 6.81952 13.6563 6.83742 13.5912L7.97992 10.009C8.01361 9.91887 8.02492 9.82188 8.01289 9.72638C8.00086 9.63088 7.96584 9.53973 7.91084 9.46074C7.85584 9.38175 7.7825 9.31728 7.69711 9.27286C7.61172 9.22844 7.51683 9.2054 7.42057 9.20571H3.25521Z" fill="#F1B100" stroke="black" stroke-width="0.75" stroke-linecap="round" stroke-linejoin="round"/>
</g>
</g>
<defs>
<clipPath id="clip0_3_21">
<rect width="16" height="16" fill="white"/>
</clipPath>
<clipPath id="clip1_3_21">
<rect width="16" height="16" fill="white"/>
</clipPath>
</defs>
</svg>
