<svg width="136" height="15" viewBox="0 0 136 15" fill="none" xmlns="http://www.w3.org/2000/svg">
<mask id="mask0_23462_971" style="mask-type:alpha" maskUnits="userSpaceOnUse" x="0" y="0" width="9" height="15">
<path d="M8.62388 0.0223322L3.1141 3.15203C3.06924 3.17751 3.03301 3.21502 3.00983 3.25999L0.246715 8.62016C0.166752 8.77528 0.283687 8.95742 0.463238 8.95742H2.88973L0.0140131 14.8138C-0.0514423 14.9471 0.127852 15.0655 0.23297 14.9584L8.85913 6.16977C9.16731 5.85579 8.93663 5.33844 8.48846 5.33844H6.15791L8.8494 0.22685C8.92238 0.0882402 8.76274 -0.056541 8.62388 0.0223322Z" fill="#FBD500"/>
</mask>
<g mask="url(#mask0_23462_971)">
<path d="M8.62388 0.022378L3.1141 3.15207C3.06924 3.17756 3.03301 3.21506 3.00983 3.26004L0.246715 8.6202C0.166752 8.77532 0.283687 8.95746 0.463238 8.95746H2.88973L0.0140131 14.8138C-0.0514423 14.9471 0.127852 15.0656 0.23297 14.9585L8.85913 6.16982C9.16731 5.85584 8.93663 5.33848 8.48846 5.33848H6.15791L8.8494 0.226895C8.92238 0.088286 8.76274 -0.0564952 8.62388 0.022378Z" fill="url(#paint0_linear_23462_971)"/>
<path d="M6.8269 4.98244L8.995 4.28952L9.91589 6.9722L7.74779 7.66511L6.8269 4.98244Z" fill="#FCBD15" fill-opacity="0.5"/>
<path d="M8.32593 4.39946L10.6058 4.26741L10.7813 7.08833L8.50142 7.22038L8.32593 4.39946Z" fill="#FCBD15" fill-opacity="0.6"/>
<path d="M4.05933 2.31747L10.0781 -1.44189L7.92856 3.83417H5.10723L4.05933 2.31747Z" fill="#FCBD15"/>
<path d="M6.88077 8.59333L-0.871158 16.3567L1.57396 5.59718L6.54489 4.53581L5.91345 5.76733L6.88077 8.59333Z" fill="#FCBD15"/>
<path d="M6.02098 9.22687L-1.41635 17.4377L2.31248 6.59989L4.90588 5.92123L6.02098 9.22687Z" fill="#FBA720"/>
<path d="M4.5297 10.251L-3.10705 18.6001L0.470337 7.21696L2.69447 6.69252C2.74364 6.68092 2.79521 6.68296 2.84323 6.69841L4.82527 7.33591L4.5297 10.251Z" fill="#FB8900"/>
<path d="M0.185025 8.85379L0.185025 8.10108L1.84927 7.82189C1.80125 7.80644 1.89844 7.81029 1.84927 7.82189L4.75332 7.31047L0.185025 8.85379Z" fill="#FA4F00"/>
<path d="M2.60845 12.2214L-4.18292 19.6163L-0.790584 9.63036L2.59576 9.06618C2.77092 9.037 2.92665 9.17704 2.90882 9.34769L2.60845 12.2214Z" fill="#F95200"/>
<path d="M4.04779 5.11183L-0.221777 10.3224L0.439338 4.6893L2.3071 3.57042C2.71754 3.32455 3.25841 3.47987 3.46273 3.90228L4.04779 5.11183Z" fill="#FDE52D"/>
<path d="M3.26898 5.97517L-0.980875 11.2391L-0.319761 5.60597L1.54992 4.48595C1.95968 4.24048 2.49964 4.39484 2.7047 4.81606L3.26898 5.97517Z" fill="#FDBD00"/>
<path d="M0.369141 8.10143L3.23269 2.86067L0.929401 7.72602L5.42704 7.12536L4.92904 7.26051L0.369141 14.3933L4.77341 7.30556L4.92904 7.26051L0.369141 8.10143Z" fill="#FFE300"/>
<path d="M2.57585 6.92059L0.544252 9.51444C0.667719 9.11372 2.33453 7.13719 2.54779 6.86102L2.57585 6.92059Z" fill="#FFB500"/>
<path d="M2.54998 6.86052L-1.69987 12.1763L-1.03876 6.54318L0.838973 5.41833C1.24587 5.17458 1.78198 5.3249 1.99013 5.7411L2.54998 6.86052Z" fill="#FF9600"/>
<path d="M1.79966 5.48336C1.84811 5.51914 1.89275 5.56058 1.9324 5.60734L0.929403 7.72603L2.03861 7.57789L1.83637 7.83085L0.369141 8.10144L1.79966 5.48336Z" fill="#FFA300"/>
<path d="M1.79966 5.48336C1.84811 5.51914 1.89275 5.56058 1.9324 5.60734L0.929403 7.72603L2.03861 7.57789L1.83637 7.83085L0.369141 8.10144L1.79966 5.48336Z" fill="#FFA300"/>
<path d="M1.79966 5.48336C1.84811 5.51914 1.89275 5.56058 1.9324 5.60734L0.929403 7.72603L2.03861 7.57789L0.508403 7.84657L0.369141 8.10144L1.79966 5.48336Z" fill="#FFC100"/>
<path d="M8.92773 -0.257965L2.92232 3.19028L0.974258 7.04038L0.371926 8.26055L1.06767 7.04038L3.60228 3.80052C3.64985 3.73971 3.70643 3.68597 3.7702 3.64103L6.8616 1.46231C7.57618 0.958688 8.42902 0.688357 9.30325 0.688357L8.92773 -0.257965Z" fill="url(#paint1_radial_23462_971)"/>
<path d="M4.21241 7.86126L0.136164 8.8526L0.0104603 9.25779L2.39323 8.99519L-0.487549 15.82L4.21241 7.86126Z" fill="#6A00B1"/>
<path d="M3.71508 8.52347L2.83958 9.01083L1.47583 11.8538L2.1998 11.0469L3.71508 8.52347Z" fill="#3B008B"/>
<path d="M6.16805 5.31924L9.59906 -0.88501L7.21854 2.68246L4.87634 5.96217L8.40909 5.81479L-0.0627428 15.1536L-0.0627441 15.3338L9.37398 5.31924H6.16805Z" fill="url(#paint2_linear_23462_971)"/>
<path d="M4.19778 7.80325L0.136201 8.8526L0.010498 9.2578L2.90137 8.95668L4.19778 7.80325Z" fill="#3B008B"/>
<path d="M4.74453 7.30991L0.0691988 8.89142L-0.308215 9.20561L3.41449 8.50252L4.01906 7.97103L-0.0820756 15.1141C1.70839 12.1524 2.95406 10.2716 4.74453 7.30991Z" fill="#CE00CB"/>
<path d="M4.74442 7.30991L0.0690918 8.89142L-0.308322 9.20561L3.41438 8.50252L4.01895 7.97102L4.74442 7.30991C6.53489 4.34823 2.95396 10.2716 4.74442 7.30991Z" fill="#BF00B1"/>
</g>
<path d="M131.193 14.7951C130.264 14.7951 129.799 14.3306 129.799 13.4016V0.737701H131.93V13.2172H135.23V14.7951H131.193ZM127.443 5.43032V3.85245H135.23V5.43032H127.443Z" fill="#141031"/>
<path d="M123.76 14.7951C122.831 14.7951 122.366 14.3306 122.366 13.4016V0H124.477V13.2172H127.039V14.7951H123.76Z" fill="#141031"/>
<path d="M114.55 15C112.897 15 111.606 14.5082 110.677 13.5246C109.748 12.541 109.284 11.1407 109.284 9.32377C109.284 7.50683 109.748 6.10655 110.677 5.12295C111.606 4.13934 112.897 3.64754 114.55 3.64754C116.203 3.64754 117.487 4.13934 118.403 5.12295C119.332 6.10655 119.796 7.50683 119.796 9.32377C119.796 11.1407 119.332 12.541 118.403 13.5246C117.487 14.5082 116.203 15 114.55 15ZM114.55 13.2992C115.575 13.2992 116.326 13.0191 116.804 12.459C117.296 11.8852 117.542 10.9973 117.542 9.79508V8.85246C117.542 7.65027 117.296 6.76912 116.804 6.20901C116.326 5.63524 115.575 5.34836 114.55 5.34836C113.539 5.34836 112.781 5.63524 112.275 6.20901C111.784 6.76912 111.538 7.65027 111.538 8.85246V9.79508C111.538 10.9973 111.784 11.8852 112.275 12.459C112.781 13.0191 113.539 13.2992 114.55 13.2992Z" fill="#141031"/>
<path d="M102.95 15C102.144 15 101.447 14.8156 100.859 14.4467C100.286 14.0779 99.8349 13.5587 99.507 12.8893H99.1791V14.7951H97.2324V0H99.3636V3.21721C99.3636 3.53142 99.3567 3.87295 99.3431 4.2418C99.3431 4.61066 99.3294 5.06831 99.3021 5.61475H99.6095C99.9237 4.97268 100.354 4.4877 100.9 4.15984C101.461 3.81831 102.144 3.64754 102.95 3.64754C104.316 3.64754 105.388 4.14618 106.167 5.14344C106.959 6.14071 107.355 7.53415 107.355 9.32377C107.355 10.5123 107.178 11.5301 106.823 12.377C106.467 13.224 105.955 13.873 105.286 14.3238C104.63 14.7746 103.851 15 102.95 15ZM102.253 13.2992C103.223 13.2992 103.94 13.0191 104.405 12.459C104.869 11.8852 105.101 11.0041 105.101 9.81557V8.83197C105.101 7.64344 104.869 6.76913 104.405 6.20902C103.94 5.63525 103.223 5.34836 102.253 5.34836C101.269 5.34836 100.538 5.63525 100.06 6.20902C99.5958 6.76913 99.3636 7.64344 99.3636 8.83197V9.81557C99.3636 11.0041 99.5958 11.8852 100.06 12.459C100.538 13.0191 101.269 13.2992 102.253 13.2992Z" fill="#141031"/>
<path d="M87.707 14.7951V3.85246H89.6538V5.67623H89.9816C90.2822 5.03415 90.6852 4.54918 91.1906 4.22131C91.6961 3.89344 92.345 3.72951 93.1374 3.72951H95.0431V5.55328H92.2767C91.4434 5.55328 90.8286 5.77186 90.4324 6.20901C90.0363 6.64617 89.8382 7.34973 89.8382 8.31967V14.7951H87.707Z" fill="#141031"/>
<path d="M80.1288 15C78.5031 15 77.2326 14.5082 76.3173 13.5246C75.402 12.541 74.9443 11.1407 74.9443 9.32377C74.9443 7.50683 75.402 6.10655 76.3173 5.12295C77.2326 4.13934 78.5031 3.64754 80.1288 3.64754C81.7271 3.64754 82.9635 4.10519 83.8378 5.02049C84.7121 5.92213 85.1493 7.21994 85.1493 8.91393V9.69262H76.3378V8.25819H84.3501L83.0591 9.20082V8.79098C83.0591 7.58879 82.82 6.70765 82.3419 6.14754C81.8774 5.58743 81.1397 5.30737 80.1288 5.30737C79.1315 5.30737 78.3938 5.58743 77.9156 6.14754C77.4375 6.70765 77.1984 7.58879 77.1984 8.79098V9.79508C77.1984 10.9973 77.4375 11.8852 77.9156 12.459C78.3938 13.0191 79.1315 13.2992 80.1288 13.2992C80.7845 13.2992 81.2968 13.2035 81.6656 13.0123C82.0345 12.821 82.2941 12.6093 82.4443 12.377C82.6083 12.1448 82.6902 11.9672 82.6902 11.8443V11.7828H84.8829C84.5686 12.8347 84.0085 13.6339 83.2025 14.1803C82.3965 14.7268 81.3719 15 80.1288 15Z" fill="#141031"/>
<path d="M66.6433 15C65.7416 15 64.9561 14.7746 64.2867 14.3238C63.631 13.873 63.1187 13.224 62.7498 12.377C62.3946 11.5301 62.217 10.5123 62.217 9.32377C62.217 7.53415 62.6132 6.14071 63.4056 5.14344C64.1979 4.14618 65.2771 3.64754 66.6433 3.64754C67.4356 3.64754 68.1119 3.81831 68.672 4.15984C69.2321 4.4877 69.6692 4.97268 69.9834 5.61475H70.2908C70.2635 5.06831 70.243 4.61066 70.2293 4.2418C70.2157 3.87295 70.2088 3.53142 70.2088 3.21721V0H72.3605V14.7951H70.4138V12.8893H70.0859C69.758 13.5587 69.3004 14.0779 68.7129 14.4467C68.1392 14.8156 67.4493 15 66.6433 15ZM67.34 13.2992C68.3236 13.2992 69.0476 13.0191 69.5121 12.459C69.9766 11.8852 70.2088 11.0041 70.2088 9.81557V8.83197C70.2088 7.64344 69.9766 6.76913 69.5121 6.20902C69.0476 5.63525 68.3236 5.34836 67.34 5.34836C66.3564 5.34836 65.6323 5.63525 65.1679 6.20902C64.717 6.76913 64.4916 7.64344 64.4916 8.83197V9.81557C64.4916 11.0041 64.717 11.8852 65.1679 12.459C65.6323 13.0191 66.3564 13.2992 67.34 13.2992Z" fill="#141031"/>
<path d="M50.6257 14.7951V3.85245H52.5725V5.61475H52.9003C53.2009 4.97267 53.6175 4.4877 54.1503 4.15983C54.6968 3.8183 55.373 3.64754 56.179 3.64754C57.3539 3.64754 58.2418 3.9959 58.8429 4.69262C59.4577 5.38934 59.7651 6.41393 59.7651 7.76639V14.7951H57.6134V8.17623C57.6134 7.19262 57.4222 6.47541 57.0397 6.02459C56.6572 5.57377 56.0424 5.34836 55.1954 5.34836C54.3621 5.34836 53.7473 5.57377 53.3511 6.02459C52.955 6.47541 52.7569 7.19262 52.7569 8.17623V14.7951H50.6257Z" fill="#141031"/>
<path d="M41.8417 15C40.6668 15 39.772 14.6516 39.1573 13.9549C38.5562 13.2582 38.2556 12.2336 38.2556 10.8812V3.85246H40.3868V10.4713C40.3868 11.4549 40.578 12.1721 40.9605 12.623C41.3567 13.0738 41.9783 13.2992 42.8253 13.2992C43.6723 13.2992 44.287 13.0738 44.6696 12.623C45.0521 12.1721 45.2433 11.4549 45.2433 10.4713V3.85246H47.395V14.7951H45.4482V13.0328H45.1204C44.8198 13.6749 44.3963 14.1667 43.8499 14.5082C43.3171 14.8361 42.6477 15 41.8417 15Z" fill="#141031"/>
<path d="M26.1316 14.7951V0H28.2627V3.09426C28.2627 3.40847 28.2559 3.75 28.2422 4.11885C28.2422 4.47404 28.2286 4.92486 28.2013 5.47131H28.5086C28.7955 4.88388 29.1985 4.43306 29.7177 4.11885C30.2368 3.80465 30.8925 3.64754 31.6849 3.64754C32.8597 3.64754 33.7477 3.9959 34.3488 4.69262C34.9636 5.38934 35.2709 6.41393 35.2709 7.76639V14.7951H33.1193V8.17623C33.1193 7.19262 32.928 6.47541 32.5455 6.02459C32.163 5.57377 31.5483 5.34836 30.7013 5.34836C29.8679 5.34836 29.2532 5.57377 28.857 6.02459C28.4608 6.47541 28.2627 7.19262 28.2627 8.17623V14.7951H26.1316Z" fill="#141031"/>
<path d="M17.3648 14.7951V2.45901H13V0.655731H23.9426V2.45901H19.5574V14.7951H17.3648Z" fill="#141031"/>
<defs>
<linearGradient id="paint0_linear_23462_971" x1="6.34465" y1="3.8969" x2="0.749239" y2="15.7079" gradientUnits="userSpaceOnUse">
<stop stop-color="#FFCC00"/>
<stop offset="1" stop-color="#FBD500"/>
</linearGradient>
<radialGradient id="paint1_radial_23462_971" cx="0" cy="0" r="1" gradientTransform="matrix(-6.95928 7.50576 -5.93879 -5.12661 8.32287 0.649466)" gradientUnits="userSpaceOnUse">
<stop stop-color="#FDD618"/>
<stop offset="0.6477" stop-color="#FDD929"/>
<stop offset="0.685317" stop-color="#FBF0C5"/>
<stop offset="0.749958" stop-color="#FBF2D5"/>
</radialGradient>
<linearGradient id="paint2_linear_23462_971" x1="7.51666" y1="0.903927" x2="0.913074" y2="15.0119" gradientUnits="userSpaceOnUse">
<stop offset="0.306507" stop-color="#FCFCFD"/>
<stop offset="0.453295" stop-color="#FCE356"/>
<stop offset="0.94291" stop-color="#FFE300"/>
</linearGradient>
</defs>
</svg>
