<?xml version="1.0" encoding="utf-8"?>
<!-- Generator: Adobe Illustrator 25.0.1, SVG Export Plug-In . SVG Version: 6.00 Build 0)  -->
<svg version="1.0" id="Layer_1" xmlns="http://www.w3.org/2000/svg" xmlns:xlink="http://www.w3.org/1999/xlink" x="0px" y="0px"
	 viewBox="0 0 941 561" style="enable-background:new 0 0 941 561;" xml:space="preserve">
<style type="text/css">
	.st0{fill:none;}
</style>
<path d="M404.6,284.7c-4.5,3.4-9.2,6.7-14.2,9.9c-4,2.7-8.4,4.9-12.9,6.6c-3.9,1.3-6.2,1.1-7.7-0.6c-1.3-2.1-1.3-5.6-0.2-9.9
	c1.3-4.6,2.8-9.1,4.7-13.5c2.1-4.2,3.9-8.5,5.4-12.9c1.5-4.3,2.2-8.8,2.1-13.3c-0.1-4.7-1.5-9.3-4.1-13.3c-2.5-3.8-6.2-6.7-10.5-8.2
	c-5-1.9-10.3-2.8-15.7-2.6c-5.8,0-11.6,1.1-17,3.2c-4.4,1.7-8.5,4.3-12,7.5c-3.7,3.6-6.6,7.9-8.6,12.7c-0.8,2.4-1.3,4.8-1.5,7.3
	c-0.2,3-0.4,5.6-0.4,8.2v3.9c-2.4,1.7-4.9,3.6-8,6c-3.2,2.5-6.1,5.3-8.8,8.4c-2.9,3.4-5.4,7-7.7,10.7c-1.7,2.5-3,5.3-3.9,8.2
	c-0.2,0.9,0,2.8,0.6,6.4c0.6,3.4,2.6,7.5,5.4,12s7.7,8.8,14.2,12.7c0,0,0.2,0,0.4-0.4l0.4-0.4c-0.2,0-0.9-0.9-2.4-2.6
	c-1.6-2-3-4.1-4.1-6.4c-1.3-2.5-1.9-5.3-1.7-8.2c0.2-3.9,2.8-7.5,7.5-10.7s12.9-6.2,24.5-8.6c3.1-0.8,6-2.1,8.6-3.9
	c2.4-1.7,3.6-2.6,3.9-2.8c-0.9,9.2,0.6,17.6,4.9,25.1c3.6,6.5,8.2,12.3,13.7,17.2l53.5-53.5v-0.2
	C410.1,280.4,407.3,282.4,404.6,284.7z M334.6,255.1c-0.9,2.1-1.7,4.5-2.6,6.7c-0.6,1.2-1,2.5-1.3,3.9c0.2,0.2,0.6,0.9,1.5,1.9
	c0.6,0.6,1.1,1.2,1.5,1.9c-0.1,1.3-0.4,2.6-0.9,3.9c-0.7,2-2.1,3.6-4.1,4.5c-2.3,0.9-4.9,1.2-7.3,0.6c-1.9-0.4-3.7-1.1-5.4-2.1
	c-1.3-0.9-2.1-1.5-2.1-1.5l21.9-23.8v0.9C335.3,252.9,334.9,254,334.6,255.1z"/>
<path d="M824.1,245.6c6.2-0.2,11.3,4.7,11.5,10.8s-4.7,11.3-10.8,11.5c-0.2,0-0.4,0-0.7,0c-6.2,0.2-11.3-4.7-11.5-10.8
	s4.7-11.3,10.8-11.5C823.7,245.6,823.9,245.6,824.1,245.6z M823.9,247.8c-4.9,0.2-8.6,4.3-8.4,9.2c0.2,4.6,4,8.3,8.6,8.4
	c4.7,0,8.6-3.8,8.6-8.5c0-0.1,0-0.2,0-0.3C832.5,251.9,829.1,247.8,823.9,247.8z M822.2,262.4h-2.6v-10.9c1.4-0.3,2.9-0.4,4.3-0.4
	c1.3-0.1,2.7,0.2,3.9,0.9c0.7,0.6,1.1,1.4,1.1,2.4c0,1.3-0.8,2.1-2.4,2.6v0.2c1.1,0.5,1.9,1.6,2.2,2.8c0.4,1.7,0.4,2.4,0.9,2.8h-2.8
	c-0.4-0.4-0.4-1.3-0.9-2.6c-0.2-1.3-0.9-1.7-2.4-1.7h-1.3L822.2,262.4z M822.2,256.1h1.3c1.5,0,2.6-0.4,2.6-1.7
	c0-1.1-0.9-1.7-2.4-1.7c-0.5,0-1,0-1.5,0.2L822.2,256.1z"/>
<path d="M105.5,239.6H168v18.9h-17.2v51.1h-27.9v-51.1h-17.4V239.6z"/>
<path d="M222.5,309.6h-23.6V280c0.1-1.5-0.3-3-1.1-4.3c-0.8-0.9-2-1.4-3.2-1.3c-1.2-0.1-2.4,0.4-3.2,1.3c-0.9,0.9-1.1,2.6-1.1,5.2
	v29h-23.8v-70.2h23.8v27.9c1.4-2.5,3.5-4.6,6-6c2.8-1.4,5.9-2,9-1.9c2.2-0.1,4.5,0.2,6.6,0.9c1.7,0.5,3.3,1.3,4.7,2.4
	c1.2,1,2.3,2.1,3.2,3.4c1,1.6,1.7,3.5,1.9,5.4c0.5,2.8,0.7,5.7,0.6,8.6L222.5,309.6z"/>
<path d="M281.1,289.4h-33.7v1.7c0,3.2,0.4,5.4,1.5,6.4c1.3,1.2,3.1,1.9,4.9,1.7c1.6,0.1,3.1-0.4,4.3-1.5c1.1-1.2,1.8-2.7,1.9-4.3
	h20.6c-0.2,2.5-1,5-2.4,7.1c-1.4,2.4-3.3,4.4-5.6,6c-2.4,1.6-5.1,2.8-8,3.4c-3.8,0.9-7.7,1.3-11.6,1.3c-3.5,0-7.1-0.3-10.5-1.1
	c-2.9-0.6-5.6-1.8-7.9-3.6c-2.4-1.8-4.4-4-6-6.4c-1.3-2-2.3-4.3-2.8-6.7c-0.7-2.7-1-5.4-1.1-8.2c-0.2-4.3,0.6-8.5,2.1-12.5
	c1.3-2.7,3.1-5.1,5.4-7.1c2.4-2.1,5.2-3.7,8.2-4.7c4.3-1.3,8.8-2,13.3-1.9c4.2-0.1,8.5,0.5,12.5,1.9c3.4,1.3,6.4,3.3,8.8,6
	c2,2.3,3.5,4.9,4.5,7.7c1.1,3.5,1.6,7.2,1.5,11L281.1,289.4z M259.9,279.1c0.1-1.9-0.2-3.8-0.9-5.6c-1.1-1.7-2.8-2.4-5.1-2.4
	c-2-0.1-3.9,0.8-5.1,2.4c-0.9,1.1-1.3,3-1.3,5.6H259.9z"/>
<path d="M408,239.4h41.9c8.8,0,15,1.5,18.5,4.7c3.6,3,5.4,7.5,5.4,13.1c0,2.2-0.4,4.4-1.1,6.4c-0.5,1.8-1.5,3.5-2.8,4.9
	c-1.2,1.3-2.7,2.4-4.3,3.2c-1.9,0.9-3.8,1.7-5.8,2.4c2.2,0.3,4.4,0.9,6.5,1.7c1.4,0.6,2.5,1.6,3.4,2.8c1,1.4,1.7,3,1.9,4.7
	c0.4,1.9,1.1,5.8,1.7,11.4c0.6,5.2,1.6,10.3,3,15.2H449c-0.4-1-0.7-2.1-0.9-3.2c-0.2-1.1-0.4-2.8-0.9-5.6l-1.3-9.4
	c-0.2-1.6-0.7-3.2-1.3-4.7c-0.4-0.8-1.1-1.5-1.9-1.7c-1.4-0.3-2.8-0.4-4.3-0.4h-3v24.9H408V239.4z M435.3,268.8h2.1
	c1.7,0,3.5-0.2,5.1-0.6c1.4-0.4,2.6-1.2,3.4-2.4c0.8-1.3,1.2-2.8,1.1-4.3c0.1-1.8-0.6-3.5-1.9-4.7c-1.3-1.1-3.9-1.5-7.7-1.5h-2.1
	L435.3,268.8z"/>
<path d="M531,289.4h-33.7v1.7c0,3.2,0.4,5.4,1.5,6.4c1.3,1.2,3.1,1.9,4.9,1.7c1.6,0.1,3.1-0.4,4.3-1.5c1.1-1.2,1.8-2.7,1.9-4.3h20.6
	c-0.2,2.5-1,5-2.4,7.1c-1.4,2.4-3.3,4.4-5.6,6c-2.4,1.6-5.1,2.8-7.9,3.4c-3.8,0.9-7.7,1.3-11.6,1.3c-3.5,0-7.1-0.3-10.5-1.1
	c-2.9-0.6-5.6-1.9-7.9-3.6c-2.4-1.8-4.4-4-6-6.4c-1.3-2-2.3-4.3-2.8-6.7c-0.7-2.7-1.1-5.4-1.1-8.2c0-4.2,0.7-8.5,2.1-12.5
	c1.3-2.7,3.1-5.1,5.4-7.1c2.4-2.1,5.1-3.7,8.2-4.7c4.3-1.3,8.8-2,13.3-1.9c4.2-0.1,8.5,0.5,12.4,1.9c3.4,1.3,6.4,3.3,8.8,6
	c2,2.3,3.5,4.9,4.5,7.7c1.1,3.5,1.6,7.2,1.5,11C531.2,287,531.2,288.2,531,289.4L531,289.4z M510,279.1c0-2.8-0.2-4.5-0.9-5.6
	c-1.1-1.7-2.8-2.4-5.2-2.4c-2-0.1-3.9,0.8-5.1,2.4c-0.9,1.1-1.3,3-1.3,5.6H510z"/>
<path d="M568.2,266.2l0.9-5.2h22.1v42.3c0.1,3.2-0.1,6.5-0.6,9.7c-0.9,5.3-4.1,9.9-8.8,12.5c-2.4,1.5-5.6,2.4-9,3.2
	c-3.7,0.8-7.6,1.2-11.4,1.1c-9.5,0-16.1-1.5-20-4.5c-3.8-2.9-6.1-7.4-6.2-12.2h22.8c-0.1,1.1,0.4,2.1,1.3,2.8
	c1.1,0.8,2.3,1.2,3.6,1.1c2.4,0,4.1-0.9,4.9-2.4c0.6-1.3,1.1-3.4,1.1-6.9v-4.9c-1.5,2.1-3.5,3.7-5.8,4.7c-2.9,1.2-5.9,1.7-9,1.7
	c-7.3,0-12.7-2.6-16.8-7.5c-3.2-4.1-4.7-9.2-4.7-15.9c0-8.4,1.9-14.6,6-19.1c3.8-4.4,9.4-6.8,15.2-6.7c3-0.1,6,0.5,8.8,1.7
	C564.8,262.7,566.8,264.3,568.2,266.2L568.2,266.2z M562,295.6c1.2,0,2.4-0.3,3.4-1.1c0.9-0.7,1.5-1.8,1.7-3
	c0.3-2.4,0.5-4.9,0.4-7.3c0-2.2-0.1-4.4-0.4-6.6c-0.3-1.1-0.9-2.2-1.7-3c-0.9-0.6-1.9-0.9-3-0.9c-1.2-0.1-2.3,0.3-3.2,1.1
	c-0.9,0.7-1.5,1.7-1.9,2.8c-0.5,2.8-0.8,5.7-0.6,8.6c0,2,0.1,4,0.4,6c0.2,1.1,0.8,2.1,1.7,2.8C559.8,295.4,560.9,295.7,562,295.6
	L562,295.6z"/>
<path d="M594.8,254.6v-14.8H618v14.8L594.8,254.6z M594.8,261.1H618v48.5h-23.2V261.1z"/>
<path d="M620.2,293.9h21.5c0,2.4,0.4,4.1,1.3,5.2c1,1.1,2.4,1.6,3.9,1.5c1.4,0.1,2.7-0.3,3.9-1.1c0.9-0.8,1.4-2,1.3-3.2
	c0-1-0.3-2.1-1.1-2.8c-0.9-0.6-2.8-1.3-6-1.7l-8.6-1.5c-3-0.4-5.9-1.3-8.6-2.6c-2.6-1.5-4.7-3.8-5.8-6.7c-0.5-1.6-0.8-3.3-0.9-4.9
	c0-4.1,1.1-7.3,3.2-9.7c2.3-2.6,5.3-4.5,8.6-5.6c3.4-1.3,8.2-1.7,13.7-1.7c3.8,0,7.6,0.4,11.4,1.1c3.1,0.5,6.1,1.8,8.6,3.6
	c2.1,1.5,3.7,3.6,4.7,6c0.6,1.9,0.9,3.8,0.9,5.8h-20.2c0.1-1.5-0.3-3-1.1-4.3c-1-0.9-2.3-1.4-3.7-1.3c-1.7,0-3,0.2-3.9,1.1
	c-0.8,0.7-1.2,1.7-1.1,2.8c0,0.7,0.2,1.5,0.4,2.1c0.2,0.6,0.9,0.9,1.5,1.1c1.4,0.4,2.8,0.7,4.3,0.9l8,1.3c4.7,0.6,8.4,1.7,10.5,3
	c2.2,1,4.1,2.7,5.2,4.9c1.1,2.3,1.7,4.8,1.7,7.3c0.1,3.2-0.8,6.3-2.6,9c-2.1,2.7-4.9,4.8-8.2,6c-3.7,1.5-9,2.4-16.1,2.4
	c-3.4,0-6.7-0.2-10.1-0.6c-2.6-0.4-5.1-1.1-7.5-2.1c-1.9-0.8-3.6-2.1-4.9-3.6c-1.3-1.3-2.2-3-2.8-4.7
	C620.6,298.6,620.1,296.3,620.2,293.9z"/>
<path d="M679,252.9l23.2-8.1v16.1h11v14.6h-11v14.4c0,2.4,0.2,3.9,1.1,4.5c0.8,0.8,1.9,1.2,3,1.1c2.1,0,4.2-0.3,6.2-0.9V309
	c-5.1,1.1-10.3,1.7-15.5,1.9c-2.9,0-5.8-0.4-8.6-1.3c-2.3-0.6-4.4-1.9-6-3.6c-1.2-1.4-2-3-2.6-4.7c-0.5-2-0.7-4-0.7-6v-19.8h-6.4
	v-14.4h6.4L679,252.9z"/>
<path d="M768.7,289.4H735v1.7c0,3.2,0.4,5.4,1.5,6.4c1.3,1.3,3.2,1.9,5,1.7c1.6,0.1,3.1-0.4,4.3-1.5c1.1-1.2,1.8-2.7,1.9-4.3h20.4
	c-0.2,2.5-1,5-2.4,7.1c-1.4,2.4-3.3,4.4-5.6,6c-2.4,1.6-5.1,2.8-8,3.4c-3.8,0.9-7.7,1.3-11.6,1.3c-3.5,0-7.1-0.3-10.5-1.1
	c-2.9-0.6-5.6-1.9-7.9-3.6c-2.4-1.8-4.4-3.9-6-6.4c-1.3-2-2.3-4.3-2.8-6.7c-0.7-2.7-1-5.4-1.1-8.2c0-4.2,0.7-8.5,2.2-12.5
	c1.3-2.7,3.1-5.1,5.4-7.1c2.4-2.1,5.2-3.7,8.2-4.7c4.3-1.3,8.8-2,13.3-1.9c4.2-0.1,8.5,0.5,12.5,1.9c3.4,1.3,6.4,3.3,8.8,6
	c2,2.2,3.5,4.9,4.3,7.7c1,3.6,1.5,7.2,1.5,11C768.8,286.9,768.9,288.2,768.7,289.4z M747.7,279.1c0-2.8-0.2-4.5-0.9-5.6
	c-1.1-1.7-2.8-2.4-5.2-2.4c-2-0.2-4,0.7-5.2,2.3c-0.9,1.1-1.1,3-1.1,5.6L747.7,279.1z"/>
<path d="M771.3,260.4h22.5l0.6,5.8c1.6-1.9,3.5-3.4,5.6-4.7c1.6-0.9,3.4-1.3,5.2-1.3c1.9,0.1,3.8,0.4,5.6,1.1V280
	c-2-0.5-4-0.9-6-1.1c-1.1,0-1.9-0.2-3-0.2c-1.8-0.1-3.6,0.5-4.9,1.7c-1.1,1.1-1.7,3-1.7,5.6v23.8h-23.9V260.4z"/>
<rect x="86" y="203" class="st0" width="769" height="155"/>
</svg>
