<?xml version="1.0"?>
<svg id="scene" viewBox="0 0 1500 880" role="img" aria-label="Isometric diagram: Thunderbolt desktop, web, mobile and CLI clients syncing over a shared line that routes to interchangeable agent backends — Haystack, Hermes and Claude Code." xmlns="http://www.w3.org/2000/svg" width="1500" height="880"><defs><filter id="soft" x="-60%" y="-60%" width="220%" height="220%"><feGaussianBlur stdDeviation="5"></feGaussianBlur></filter><filter id="glowA" x="-120%" y="-120%" width="340%" height="340%"><feGaussianBlur stdDeviation="3.5" result="b"></feGaussianBlur><feMerge><feMergeNode in="b"></feMergeNode><feMergeNode in="SourceGraphic"></feMergeNode></feMerge></filter><linearGradient id="boltG" x1="0" y1="0" x2="1" y2="1"><stop offset="0%" stop-color="#fde047"></stop><stop offset="55%" stop-color="#f0a800"></stop><stop offset="100%" stop-color="#ea580c"></stop></linearGradient><linearGradient id="boltP" x1="0" y1="0" x2="1" y2="1"><stop offset="0%" stop-color="#a800a8"></stop><stop offset="100%" stop-color="#4c1d95"></stop></linearGradient><pattern id="dotT" width="15" height="15" patternUnits="userSpaceOnUse" patternTransform="matrix(0.9,0.45,-0.9,0.45,0,0)"><circle cx="4" cy="4" r="1.4" fill="#ffffff" opacity="0.3"></circle></pattern><pattern id="dotL" width="15" height="15" patternUnits="userSpaceOnUse" patternTransform="matrix(0.9,0.45,0,1,0,0)"><circle cx="4" cy="4" r="1.4" fill="#ffffff" opacity="0.3"></circle></pattern><pattern id="dotR" width="15" height="15" patternUnits="userSpaceOnUse" patternTransform="matrix(0.9,-0.45,0,1,0,0)"><circle cx="4" cy="4" r="1.4" fill="#ffffff" opacity="0.3"></circle></pattern></defs><g><g><path d="M 399.0 603.5 L 723.2 441.4 Q 750.0 428.0 765.3 435.6 L 780.6 443.3" fill="none" stroke="#8577b3" stroke-width="1.8" stroke-dasharray="6 7" opacity="0.85" class="flow" stroke-linecap="round"></path><path d="M 778.8 442.4 L 1142.5 624.3" fill="none" stroke="#b0771c" stroke-width="1.8" stroke-dasharray="6 7" opacity="0.85" class="flow" stroke-linecap="round"></path><path d="M 268.0 316.0 L 601.3 482.7 Q 621.0 492.5 633.6 486.2 L 646.2 479.9" fill="none" stroke="#8577b3" stroke-width="1.6" stroke-dasharray="6 7" opacity="0.85" class="" stroke-linecap="round"></path><path d="M 172.0 490.0 L 379.3 593.7 Q 399.0 603.5 411.6 597.2 L 424.2 590.9" fill="none" stroke="#8577b3" stroke-width="1.6" stroke-dasharray="6 7" opacity="0.85" class="" stroke-linecap="round"></path><path d="M 400.0 580.0 L 411.5 585.8 Q 423.0 591.5 435.6 585.2 L 448.2 578.9" fill="none" stroke="#8577b3" stroke-width="1.6" stroke-dasharray="6 7" opacity="0.85" class="" stroke-linecap="round"></path><path d="M 622.0 698.0 L 435.7 604.8 Q 416.0 595.0 428.6 588.7 L 441.2 582.4" fill="none" stroke="#8577b3" stroke-width="1.6" stroke-dasharray="6 7" opacity="0.85" class="" stroke-linecap="round"></path><path d="M 814.8 460.4 L 827.4 466.7 Q 840.0 473.0 859.7 463.2 L 1130.0 328.0" fill="none" stroke="#b0771c" stroke-width="1.6" stroke-dasharray="6 7" opacity="0.9" class="agentPath on" stroke-linecap="round"></path><path d="M 750.0 428.0 L 820.3 463.2 Q 840.0 473.0 859.7 463.2 L 1130.0 328.0" fill="none" stroke="#f0a800" stroke-width="2.6" stroke-linecap="round" pathLength="100" stroke-dasharray="100" class="pulseP on"></path><path d="M 1037.3 571.6 L 1049.9 578.0 Q 1062.5 584.3 1082.2 574.4 L 1295.0 468.0" fill="none" stroke="#b0771c" stroke-width="1.6" stroke-dasharray="6 7" opacity="0.9" class="agentPath on" stroke-linecap="round"></path><path d="M 750.0 428.0 L 1042.8 574.4 Q 1062.5 584.3 1082.2 574.4 L 1295.0 468.0" fill="none" stroke="#f0a800" stroke-width="2.6" stroke-linecap="round" pathLength="100" stroke-dasharray="100" class="pulseP"></path><path d="M 1117.3 611.6 L 1129.9 618.0 Q 1142.5 624.3 1122.8 634.1 L 1085.0 653.0" fill="none" stroke="#b0771c" stroke-width="1.6" stroke-dasharray="6 7" opacity="0.9" class="agentPath on" stroke-linecap="round"></path><path d="M 750.0 428.0 L 1122.8 614.4 Q 1142.5 624.3 1122.8 634.1 L 1085.0 653.0" fill="none" stroke="#f0a800" stroke-width="2.6" stroke-linecap="round" pathLength="100" stroke-dasharray="100" class="pulseP"></path></g><g><g><g transform="translate(0,-14) rotate(-6)"><rect x="-9" y="-12" width="18" height="24" rx="2" fill="#fffdf4" stroke="#2b1e4a" stroke-width="1"></rect><rect x="-9" y="-12" width="18" height="6.5" rx="2" fill="#8b5cf6" stroke="#2b1e4a" stroke-width="1"></rect><rect x="-5.5" y="-2" width="11" height="2" fill="#c9c2ad"></rect><rect x="-5.5" y="2.5" width="8" height="2" fill="#d9d2ba"></rect></g></g><g><g transform="translate(0,-14) rotate(-6)"><rect x="-9" y="-12" width="18" height="24" rx="2" fill="#fffdf4" stroke="#2b1e4a" stroke-width="1"></rect><rect x="-9" y="-12" width="18" height="6.5" rx="2" fill="#c4b5fd" stroke="#2b1e4a" stroke-width="1"></rect><rect x="-5.5" y="-2" width="11" height="2" fill="#c9c2ad"></rect><rect x="-5.5" y="2.5" width="8" height="2" fill="#d9d2ba"></rect></g></g><g><g transform="translate(0,-14) rotate(-6)"><rect x="-9" y="-12" width="18" height="24" rx="2" fill="#fffdf4" stroke="#2b1e4a" stroke-width="1"></rect><rect x="-9" y="-12" width="18" height="6.5" rx="2" fill="#fbbf24" stroke="#2b1e4a" stroke-width="1"></rect><rect x="-5.5" y="-2" width="11" height="2" fill="#c9c2ad"></rect><rect x="-5.5" y="2.5" width="8" height="2" fill="#d9d2ba"></rect></g></g><g><g transform="translate(0,-14) rotate(-6)"><rect x="-9" y="-12" width="18" height="24" rx="2" fill="#fffdf4" stroke="#2b1e4a" stroke-width="1"></rect><rect x="-9" y="-12" width="18" height="6.5" rx="2" fill="#c4b5fd" stroke="#2b1e4a" stroke-width="1"></rect><rect x="-5.5" y="-2" width="11" height="2" fill="#c9c2ad"></rect><rect x="-5.5" y="2.5" width="8" height="2" fill="#d9d2ba"></rect></g></g><g display=""><g><g transform="translate(0,-14) rotate(-6)"><rect x="-9" y="-12" width="18" height="24" rx="2" fill="#fffdf4" stroke="#2b1e4a" stroke-width="1"></rect><rect x="-9" y="-12" width="18" height="6.5" rx="2" fill="#8b5cf6" stroke="#2b1e4a" stroke-width="1"></rect><rect x="-5.5" y="-2" width="11" height="2" fill="#c9c2ad"></rect><rect x="-5.5" y="2.5" width="8" height="2" fill="#d9d2ba"></rect></g></g><g><g transform="translate(0,-14) rotate(-6)"><rect x="-9" y="-12" width="18" height="24" rx="2" fill="#fffdf4" stroke="#2b1e4a" stroke-width="1"></rect><rect x="-9" y="-12" width="18" height="6.5" rx="2" fill="#fbbf24" stroke="#2b1e4a" stroke-width="1"></rect><rect x="-5.5" y="-2" width="11" height="2" fill="#c9c2ad"></rect><rect x="-5.5" y="2.5" width="8" height="2" fill="#d9d2ba"></rect></g></g><g><g transform="translate(0,-14) rotate(-6)"><rect x="-9" y="-12" width="18" height="24" rx="2" fill="#fffdf4" stroke="#2b1e4a" stroke-width="1"></rect><rect x="-9" y="-12" width="18" height="6.5" rx="2" fill="#8b5cf6" stroke="#2b1e4a" stroke-width="1"></rect><rect x="-5.5" y="-2" width="11" height="2" fill="#c9c2ad"></rect><rect x="-5.5" y="2.5" width="8" height="2" fill="#d9d2ba"></rect></g></g><g><g transform="translate(0,-14) rotate(-6)"><rect x="-9" y="-12" width="18" height="24" rx="2" fill="#fffdf4" stroke="#2b1e4a" stroke-width="1"></rect><rect x="-9" y="-12" width="18" height="6.5" rx="2" fill="#f0a800" stroke="#2b1e4a" stroke-width="1"></rect><rect x="-5.5" y="-2" width="11" height="2" fill="#c9c2ad"></rect><rect x="-5.5" y="2.5" width="8" height="2" fill="#d9d2ba"></rect></g></g><g><path d="M 1.5 -13 L 8 -13 L 3.5 -3.5 L 9 -3.5 L -4 13 L -0.5 1 L -6 1 Z" fill="#fbbf24" stroke="#b45309" stroke-width="1" filter="url(#glowA)" transform="translate(0,-10)"></path></g></g><g display=""><g><g transform="translate(0,-14) rotate(-6)"><rect x="-9" y="-12" width="18" height="24" rx="2" fill="#fffdf4" stroke="#2b1e4a" stroke-width="1"></rect><rect x="-9" y="-12" width="18" height="6.5" rx="2" fill="#8b5cf6" stroke="#2b1e4a" stroke-width="1"></rect><rect x="-5.5" y="-2" width="11" height="2" fill="#c9c2ad"></rect><rect x="-5.5" y="2.5" width="8" height="2" fill="#d9d2ba"></rect></g></g><g><g transform="translate(0,-14) rotate(-6)"><rect x="-9" y="-12" width="18" height="24" rx="2" fill="#fffdf4" stroke="#2b1e4a" stroke-width="1"></rect><rect x="-9" y="-12" width="18" height="6.5" rx="2" fill="#fbbf24" stroke="#2b1e4a" stroke-width="1"></rect><rect x="-5.5" y="-2" width="11" height="2" fill="#c9c2ad"></rect><rect x="-5.5" y="2.5" width="8" height="2" fill="#d9d2ba"></rect></g></g><g><g transform="translate(0,-14) rotate(-6)"><rect x="-9" y="-12" width="18" height="24" rx="2" fill="#fffdf4" stroke="#2b1e4a" stroke-width="1"></rect><rect x="-9" y="-12" width="18" height="6.5" rx="2" fill="#8b5cf6" stroke="#2b1e4a" stroke-width="1"></rect><rect x="-5.5" y="-2" width="11" height="2" fill="#c9c2ad"></rect><rect x="-5.5" y="2.5" width="8" height="2" fill="#d9d2ba"></rect></g></g><g><g transform="translate(0,-14) rotate(-6)"><rect x="-9" y="-12" width="18" height="24" rx="2" fill="#fffdf4" stroke="#2b1e4a" stroke-width="1"></rect><rect x="-9" y="-12" width="18" height="6.5" rx="2" fill="#f0a800" stroke="#2b1e4a" stroke-width="1"></rect><rect x="-5.5" y="-2" width="11" height="2" fill="#c9c2ad"></rect><rect x="-5.5" y="2.5" width="8" height="2" fill="#d9d2ba"></rect></g></g><g><path d="M 1.5 -13 L 8 -13 L 3.5 -3.5 L 9 -3.5 L -4 13 L -0.5 1 L -6 1 Z" fill="#fbbf24" stroke="#b45309" stroke-width="1" filter="url(#glowA)" transform="translate(0,-10)"></path></g></g><g display=""><g><g transform="translate(0,-14) rotate(-6)"><rect x="-9" y="-12" width="18" height="24" rx="2" fill="#fffdf4" stroke="#2b1e4a" stroke-width="1"></rect><rect x="-9" y="-12" width="18" height="6.5" rx="2" fill="#8b5cf6" stroke="#2b1e4a" stroke-width="1"></rect><rect x="-5.5" y="-2" width="11" height="2" fill="#c9c2ad"></rect><rect x="-5.5" y="2.5" width="8" height="2" fill="#d9d2ba"></rect></g></g><g><g transform="translate(0,-14) rotate(-6)"><rect x="-9" y="-12" width="18" height="24" rx="2" fill="#fffdf4" stroke="#2b1e4a" stroke-width="1"></rect><rect x="-9" y="-12" width="18" height="6.5" rx="2" fill="#fbbf24" stroke="#2b1e4a" stroke-width="1"></rect><rect x="-5.5" y="-2" width="11" height="2" fill="#c9c2ad"></rect><rect x="-5.5" y="2.5" width="8" height="2" fill="#d9d2ba"></rect></g></g><g><g transform="translate(0,-14) rotate(-6)"><rect x="-9" y="-12" width="18" height="24" rx="2" fill="#fffdf4" stroke="#2b1e4a" stroke-width="1"></rect><rect x="-9" y="-12" width="18" height="6.5" rx="2" fill="#8b5cf6" stroke="#2b1e4a" stroke-width="1"></rect><rect x="-5.5" y="-2" width="11" height="2" fill="#c9c2ad"></rect><rect x="-5.5" y="2.5" width="8" height="2" fill="#d9d2ba"></rect></g></g><g><g transform="translate(0,-14) rotate(-6)"><rect x="-9" y="-12" width="18" height="24" rx="2" fill="#fffdf4" stroke="#2b1e4a" stroke-width="1"></rect><rect x="-9" y="-12" width="18" height="6.5" rx="2" fill="#f0a800" stroke="#2b1e4a" stroke-width="1"></rect><rect x="-5.5" y="-2" width="11" height="2" fill="#c9c2ad"></rect><rect x="-5.5" y="2.5" width="8" height="2" fill="#d9d2ba"></rect></g></g><g><path d="M 1.5 -13 L 8 -13 L 3.5 -3.5 L 9 -3.5 L -4 13 L -0.5 1 L -6 1 Z" fill="#fbbf24" stroke="#b45309" stroke-width="1" filter="url(#glowA)" transform="translate(0,-10)"></path></g></g></g><g><ellipse cx="276.2" cy="325.9" rx="126" ry="60" fill="#b7ae8e" opacity="0.42" filter="url(#soft)"></ellipse><g><polygon points="160,302 268,356 268,372 160,318" fill="#8f6ce9" stroke="#2b1e4a" stroke-width="1" stroke-linejoin="round"></polygon><polygon points="268,356 376,302 376,318 268,372" fill="#6d43c8" stroke="#2b1e4a" stroke-width="1" stroke-linejoin="round"></polygon><polygon points="268,248 376,302 268,356 160,302" fill="#b39df7" stroke="#2b1e4a" stroke-width="1" stroke-linejoin="round"></polygon><polyline points="160,302 268,248 376,302" fill="none" stroke="#e2d9fc" stroke-width="1.6" opacity="0.9" stroke-linecap="round"></polyline></g><polygon points="268,256.1 359.8,302 268,347.9 176.20000000000005,302" fill="#cbbcf9" stroke="#2b1e4a" stroke-width="0.8"></polygon><polygon points="268,256.1 359.8,302 268,347.9 176.20000000000005,302" fill="url(#dotT)" stroke="none"></polygon><polygon points="268,262.4 347.2,302 268,341.59999999999997 188.79999999999995,302" fill="none" stroke="#ffffff" stroke-width="1" stroke-dasharray="3 4" opacity="0.6"></polygon><g transform="matrix(0.9,-0.45,0,1,268,356)"><text x="60" y="12.5" fill="#fffdf6" font-size="10.5" font-family="var(--mono)" font-weight="600" letter-spacing="0.22em" text-anchor="middle">DESKTOP</text></g><ellipse cx="276" cy="307" rx="52" ry="14" fill="#b7ae8e" opacity="0.28" filter="url(#soft)"></ellipse><g><polygon points="239.2,299 251.8,305.29999999999995 251.8,317.29999999999995 239.2,311" fill="#f1ebd8" stroke="#2b1e4a" stroke-width="1" stroke-linejoin="round"></polygon><polygon points="251.8,305.29999999999995 298.6,281.9 298.6,293.9 251.8,317.29999999999995" fill="#ddd4bb" stroke="#2b1e4a" stroke-width="1" stroke-linejoin="round"></polygon><polygon points="286,275.59999999999997 298.6,281.9 251.8,305.29999999999995 239.2,299" fill="#fffdf4" stroke="#2b1e4a" stroke-width="1" stroke-linejoin="round"></polygon><polyline points="239.2,299 286,275.59999999999997 298.6,281.9" fill="none" stroke="#ffffff" stroke-width="1.6" opacity="0.9" stroke-linecap="round"></polyline></g><g><polygon points="258.1,267.15 265.3,270.75 265.3,296.75 258.1,293.15" fill="#f1ebd8" stroke="#2b1e4a" stroke-width="1" stroke-linejoin="round"></polygon><polygon points="265.3,270.75 281.5,262.65 281.5,288.65 265.3,296.75" fill="#ddd4bb" stroke="#2b1e4a" stroke-width="1" stroke-linejoin="round"></polygon><polygon points="274.3,259.04999999999995 281.5,262.65 265.3,270.75 258.1,267.15" fill="#fffdf4" stroke="#2b1e4a" stroke-width="1" stroke-linejoin="round"></polygon><polyline points="258.1,267.15 274.3,259.04999999999995 281.5,262.65" fill="none" stroke="#ffffff" stroke-width="1.6" opacity="0.9" stroke-linecap="round"></polyline></g><g><polygon points="217.60000000000002,215.59999999999997 226.60000000000002,220.09999999999997 226.60000000000002,294.09999999999997 217.60000000000002,289.59999999999997" fill="#f1ebd8" stroke="#2b1e4a" stroke-width="1" stroke-linejoin="round"></polygon><polygon points="226.60000000000002,220.09999999999997 320.2,173.29999999999995 320.2,247.29999999999995 226.60000000000002,294.09999999999997" fill="#ddd4bb" stroke="#2b1e4a" stroke-width="1" stroke-linejoin="round"></polygon><polygon points="311.2,168.79999999999995 320.2,173.29999999999995 226.60000000000002,220.09999999999997 217.60000000000002,215.59999999999997" fill="#fffdf4" stroke="#2b1e4a" stroke-width="1" stroke-linejoin="round"></polygon><polyline points="217.60000000000002,215.59999999999997 311.2,168.79999999999995 320.2,173.29999999999995" fill="none" stroke="#ffffff" stroke-width="1.6" opacity="0.9" stroke-linecap="round"></polyline></g><g transform="matrix(0.9,-0.45,0,1,226.60000000000002,220.09999999999997)"><rect x="5" y="5" width="94" height="64" rx="3" fill="#fffdf6" stroke="#ddd4bb" stroke-width="1"></rect><rect x="10" y="10" width="84" height="9" rx="2" fill="#f1ebd8"></rect><circle cx="15" cy="14.5" r="2" fill="#f0a800"></circle><rect x="10" y="23" width="26" height="41" rx="2" fill="#f1ebd8"></rect><rect x="13" y="27" width="20" height="3" rx="1.5" fill="#8b5cf6"></rect><rect x="13" y="35" width="20" height="3" rx="1.5" fill="#d9d2ba"></rect><rect x="13" y="43" width="20" height="3" rx="1.5" fill="#d9d2ba"></rect><rect x="13" y="51" width="20" height="3" rx="1.5" fill="#d9d2ba"></rect><rect x="40" y="23" width="54" height="26" rx="2" fill="#faf6e9" stroke="#e5dfca" stroke-width="0.8"></rect><path d="M 44 44 L 52 36 L 60 40 L 68 30 L 76 34 L 88 26" fill="none" stroke="#f0a800" stroke-width="2" stroke-linecap="round"></path><rect x="40" y="53" width="54" height="11" rx="2" fill="#faf6e9" stroke="#e5dfca" stroke-width="0.8"></rect><rect x="44" y="57" width="34" height="3" rx="1.5" fill="#d9d2ba"></rect></g><g class="backend active" data-id="haystack"><g class="activeGlow"><ellipse cx="1130" cy="332" rx="105" ry="48" fill="#fbbf24" opacity="0.5" filter="url(#soft)"></ellipse></g><ellipse cx="1138.2" cy="337.9" rx="126" ry="60" fill="#b7ae8e" opacity="0.42" filter="url(#soft)"></ellipse><g><polygon points="1022,314 1130,368 1130,384 1022,330" fill="#e9a92c" stroke="#2b1e4a" stroke-width="1" stroke-linejoin="round"></polygon><polygon points="1130,368 1238,314 1238,330 1130,384" fill="#c4821a" stroke="#2b1e4a" stroke-width="1" stroke-linejoin="round"></polygon><polygon points="1130,260 1238,314 1130,368 1022,314" fill="#f7ca4d" stroke="#2b1e4a" stroke-width="1" stroke-linejoin="round"></polygon><polyline points="1022,314 1130,260 1238,314" fill="none" stroke="#ffe9a8" stroke-width="1.6" opacity="0.9" stroke-linecap="round"></polyline></g><polygon points="1130,268.1 1221.8,314 1130,359.9 1038.2,314" fill="#fbdc8a" stroke="#2b1e4a" stroke-width="0.8"></polygon><polygon points="1130,268.1 1221.8,314 1130,359.9 1038.2,314" fill="url(#dotT)" stroke="none"></polygon><polygon points="1130,274.4 1209.2,314 1130,353.6 1050.8,314" fill="none" stroke="#ffffff" stroke-width="1" stroke-dasharray="3 4" opacity="0.6"></polygon><g transform="matrix(0.9,0.45,0,1,1022,314)"><text x="60" y="12.5" fill="#fffdf6" font-size="10.5" font-family="var(--mono)" font-weight="600" letter-spacing="0.22em" text-anchor="middle">HAYSTACK</text></g><ellipse cx="1138" cy="319" rx="58" ry="15" fill="#b7ae8e" opacity="0.3" filter="url(#soft)"></ellipse><g class="lift"><g><polygon points="1077.8,201.10000000000002 1167.8,246.10000000000002 1167.8,340.1 1077.8,295.1" fill="#f1ebd8" stroke="#2b1e4a" stroke-width="1" stroke-linejoin="round"></polygon><polygon points="1167.8,246.10000000000002 1182.2,238.89999999999998 1182.2,332.9 1167.8,340.1" fill="#ddd4bb" stroke="#2b1e4a" stroke-width="1" stroke-linejoin="round"></polygon><polygon points="1092.2,193.89999999999998 1182.2,238.89999999999998 1167.8,246.10000000000002 1077.8,201.10000000000002" fill="#fffdf4" stroke="#2b1e4a" stroke-width="1" stroke-linejoin="round"></polygon><polyline points="1077.8,201.10000000000002 1092.2,193.89999999999998 1182.2,238.89999999999998" fill="none" stroke="#ffffff" stroke-width="1.6" opacity="0.9" stroke-linecap="round"></polyline></g><g transform="matrix(0.9,0.45,0,1,1077.8,201.10000000000002)"><rect x="0" y="88" width="100" height="6" fill="#2558FF" stroke="#2b1e4a" stroke-width="0.8"></rect><rect x="7" y="7" width="86" height="76" rx="9" fill="#fffdf6" stroke="#ddd4bb" stroke-width="1"></rect><g transform="translate(50,42)"><g transform="translate(-26.000000000000004,-26.000000000000004) scale(0.611764705882353)"><path d="M12 0H73A12 12 0 0 1 85 12V73A12 12 0 0 1 73 85H12A12 12 0 0 1 0 73V12A12 12 0 0 1 12 0Z" fill="#2558FF"></path><path d="M34.19 38.20V22.00H29.43V38.20H29.45V42.97H50.83V63.00H55.60V38.20H34.19Z" fill="#FFFFFF" fill-rule="evenodd"></path><path d="M34.33 60.48C34.33 61.87 33.20 63.00 31.82 63.00C30.43 63.00 29.30 61.87 29.30 60.48C29.30 59.10 30.42 57.97 31.82 57.97C33.20 57.97 34.33 59.10 34.33 60.48Z" fill="#FFFFFF"></path><path d="M34.19 40.05H29.43V54.56H34.19V40.05Z" fill="#FFFFFF"></path></g></g><circle cx="85" cy="14" r="4" fill="#8bd68b" stroke="#2b1e4a" stroke-width="1" class="live"></circle></g><g class="faceGlow"><polygon points="1077.8,201.10000000000002 1167.8,246.10000000000002 1167.8,340.1 1077.8,295.1" fill="#fff" stroke="none"></polygon><polygon points="1167.8,246.10000000000002 1182.2,238.89999999999998 1182.2,332.9 1167.8,340.1" fill="#fff" stroke="none"></polygon><polygon points="1092.2,193.89999999999998 1182.2,238.89999999999998 1167.8,246.10000000000002 1077.8,201.10000000000002" fill="#fff" stroke="none"></polygon></g></g></g><ellipse cx="750" cy="430" rx="170" ry="80" fill="#f0a800" opacity="0.12" filter="url(#soft)"></ellipse><ellipse cx="758.2" cy="437.9" rx="100.80000000000001" ry="48" fill="#b7ae8e" opacity="0.42" filter="url(#soft)"></ellipse><g><polygon points="663.6,414 750,457.2 750,473.2 663.6,430" fill="#e9a92c" stroke="#2b1e4a" stroke-width="1" stroke-linejoin="round"></polygon><polygon points="750,457.2 836.4,414 836.4,430 750,473.2" fill="#c4821a" stroke="#2b1e4a" stroke-width="1" stroke-linejoin="round"></polygon><polygon points="750,370.8 836.4,414 750,457.2 663.6,414" fill="#f7ca4d" stroke="#2b1e4a" stroke-width="1" stroke-linejoin="round"></polygon><polyline points="663.6,414 750,370.8 836.4,414" fill="none" stroke="#ffe9a8" stroke-width="1.6" opacity="0.9" stroke-linecap="round"></polyline></g><polygon points="750,378.9 820.2,414 750,449.1 679.8,414" fill="#fbdc8a" stroke="#2b1e4a" stroke-width="0.8"></polygon><polygon points="750,378.9 820.2,414 750,449.1 679.8,414" fill="url(#dotT)" stroke="none"></polygon><polygon points="750,385.2 807.6,414 750,442.8 692.4,414" fill="none" stroke="#ffffff" stroke-width="1" stroke-dasharray="3 4" opacity="0.6"></polygon><g class="boltShadow"><ellipse cx="758" cy="419" rx="40" ry="15" fill="#b7ae8e" opacity="0.42" filter="url(#soft)"></ellipse></g><g transform="translate(750,330)"><g class="boltFloat"><path d="M14 -50 L-26 8 L-3 8 L-14 50 L30 -12 L5 -12 Z" fill="url(#boltP)" stroke="#2b1e4a" stroke-width="2" stroke-linejoin="round"></path></g></g><g class="backend active" data-id="hermes"><g class="activeGlow"><ellipse cx="1295" cy="472" rx="105" ry="48" fill="#8b5cf6" opacity="0.5" filter="url(#soft)"></ellipse></g><ellipse cx="1303.2" cy="477.90000000000003" rx="126" ry="60" fill="#b7ae8e" opacity="0.42" filter="url(#soft)"></ellipse><g><polygon points="1187,454 1295,508 1295,524 1187,470" fill="#e9a92c" stroke="#2b1e4a" stroke-width="1" stroke-linejoin="round"></polygon><polygon points="1295,508 1403,454 1403,470 1295,524" fill="#c4821a" stroke="#2b1e4a" stroke-width="1" stroke-linejoin="round"></polygon><polygon points="1295,400 1403,454 1295,508 1187,454" fill="#f7ca4d" stroke="#2b1e4a" stroke-width="1" stroke-linejoin="round"></polygon><polyline points="1187,454 1295,400 1403,454" fill="none" stroke="#ffe9a8" stroke-width="1.6" opacity="0.9" stroke-linecap="round"></polyline></g><polygon points="1295,408.1 1386.8,454 1295,499.9 1203.2,454" fill="#fbdc8a" stroke="#2b1e4a" stroke-width="0.8"></polygon><polygon points="1295,408.1 1386.8,454 1295,499.9 1203.2,454" fill="url(#dotT)" stroke="none"></polygon><polygon points="1295,414.40000000000003 1374.2,454 1295,493.6 1215.8,454" fill="none" stroke="#ffffff" stroke-width="1" stroke-dasharray="3 4" opacity="0.6"></polygon><g transform="matrix(0.9,0.45,0,1,1187,454)"><text x="60" y="12.5" fill="#fffdf6" font-size="10.5" font-family="var(--mono)" font-weight="600" letter-spacing="0.22em" text-anchor="middle">HERMES</text></g><ellipse cx="1303" cy="459" rx="58" ry="15" fill="#b7ae8e" opacity="0.3" filter="url(#soft)"></ellipse><g class="lift"><g><polygon points="1242.8,341.1 1332.8,386.1 1332.8,480.1 1242.8,435.1" fill="#f1ebd8" stroke="#2b1e4a" stroke-width="1" stroke-linejoin="round"></polygon><polygon points="1332.8,386.1 1347.2,378.90000000000003 1347.2,472.90000000000003 1332.8,480.1" fill="#ddd4bb" stroke="#2b1e4a" stroke-width="1" stroke-linejoin="round"></polygon><polygon points="1257.2,333.90000000000003 1347.2,378.90000000000003 1332.8,386.1 1242.8,341.1" fill="#fffdf4" stroke="#2b1e4a" stroke-width="1" stroke-linejoin="round"></polygon><polyline points="1242.8,341.1 1257.2,333.90000000000003 1347.2,378.90000000000003" fill="none" stroke="#ffffff" stroke-width="1.6" opacity="0.9" stroke-linecap="round"></polyline></g><g transform="matrix(0.9,0.45,0,1,1242.8,341.1)"><rect x="0" y="88" width="100" height="6" fill="#191919" stroke="#2b1e4a" stroke-width="0.8"></rect><rect x="7" y="7" width="86" height="76" rx="9" fill="#fffdf6" stroke="#ddd4bb" stroke-width="1"></rect><g transform="translate(50,42)"><image x="-32" y="-32" width="64" height="64" preserveAspectRatio="xMidYMid meet"></image></g><circle cx="85" cy="14" r="4" fill="#8bd68b" stroke="#2b1e4a" stroke-width="1" class="live"></circle></g><g class="faceGlow"><polygon points="1242.8,341.1 1332.8,386.1 1332.8,480.1 1242.8,435.1" fill="#fff" stroke="none"></polygon><polygon points="1332.8,386.1 1347.2,378.90000000000003 1347.2,472.90000000000003 1332.8,480.1" fill="#fff" stroke="none"></polygon><polygon points="1257.2,333.90000000000003 1347.2,378.90000000000003 1332.8,386.1 1242.8,341.1" fill="#fff" stroke="none"></polygon></g></g></g><ellipse cx="180.20000000000005" cy="499.90000000000003" rx="126" ry="60" fill="#b7ae8e" opacity="0.42" filter="url(#soft)"></ellipse><g><polygon points="64,476 172,530 172,546 64,492" fill="#8f6ce9" stroke="#2b1e4a" stroke-width="1" stroke-linejoin="round"></polygon><polygon points="172,530 280.00000000000006,476 280.00000000000006,492 172,546" fill="#6d43c8" stroke="#2b1e4a" stroke-width="1" stroke-linejoin="round"></polygon><polygon points="172,422 280.00000000000006,476 172,530 64,476" fill="#b39df7" stroke="#2b1e4a" stroke-width="1" stroke-linejoin="round"></polygon><polyline points="64,476 172,422 280.00000000000006,476" fill="none" stroke="#e2d9fc" stroke-width="1.6" opacity="0.9" stroke-linecap="round"></polyline></g><polygon points="172,430.1 263.8,476 172,521.9 80.20000000000005,476" fill="#cbbcf9" stroke="#2b1e4a" stroke-width="0.8"></polygon><polygon points="172,430.1 263.8,476 172,521.9 80.20000000000005,476" fill="url(#dotT)" stroke="none"></polygon><polygon points="172,436.40000000000003 251.20000000000005,476 172,515.6 92.80000000000007,476" fill="none" stroke="#ffffff" stroke-width="1" stroke-dasharray="3 4" opacity="0.6"></polygon><g transform="matrix(0.9,-0.45,0,1,172,530)"><text x="60" y="12.5" fill="#fffdf6" font-size="10.5" font-family="var(--mono)" font-weight="600" letter-spacing="0.22em" text-anchor="middle">WEB</text></g><ellipse cx="180" cy="481" rx="54" ry="14" fill="#b7ae8e" opacity="0.28" filter="url(#soft)"></ellipse><g><polygon points="117.10000000000002,412.95000000000005 126.10000000000002,417.45000000000005 126.10000000000002,503.45000000000005 117.10000000000002,498.95000000000005" fill="#f1ebd8" stroke="#2b1e4a" stroke-width="1" stroke-linejoin="round"></polygon><polygon points="126.10000000000002,417.45000000000005 226.89999999999998,367.05 226.89999999999998,453.05 126.10000000000002,503.45000000000005" fill="#ddd4bb" stroke="#2b1e4a" stroke-width="1" stroke-linejoin="round"></polygon><polygon points="217.89999999999998,362.55 226.89999999999998,367.05 126.10000000000002,417.45000000000005 117.10000000000002,412.95000000000005" fill="#fffdf4" stroke="#2b1e4a" stroke-width="1" stroke-linejoin="round"></polygon><polyline points="117.10000000000002,412.95000000000005 217.89999999999998,362.55 226.89999999999998,367.05" fill="none" stroke="#ffffff" stroke-width="1.6" opacity="0.9" stroke-linecap="round"></polyline></g><g transform="matrix(0.9,-0.45,0,1,126.10000000000002,417.45000000000005)"><rect x="4" y="4" width="104" height="78" rx="3" fill="#fffdf6" stroke="#c9c2ad" stroke-width="1"></rect><rect x="4" y="4" width="104" height="14" rx="3" fill="#efe9d6" stroke="#c9c2ad" stroke-width="1"></rect><circle cx="11" cy="11" r="2.6" fill="#ea580c" stroke="#2b1e4a" stroke-width="0.7"></circle><circle cx="19" cy="11" r="2.6" fill="#fbbf24" stroke="#2b1e4a" stroke-width="0.7"></circle><circle cx="27" cy="11" r="2.6" fill="#8b5cf6" stroke="#2b1e4a" stroke-width="0.7"></circle><rect x="36" y="7.5" width="66" height="7" rx="3.5" fill="#fffdf6" stroke="#c9c2ad" stroke-width="0.8"></rect><rect x="9" y="23" width="42" height="8" rx="2" fill="#8b5cf6"></rect><rect x="9" y="36" width="94" height="3.5" rx="1.75" fill="#d9d2ba"></rect><rect x="9" y="43" width="80" height="3.5" rx="1.75" fill="#d9d2ba"></rect><rect x="9" y="50" width="88" height="3.5" rx="1.75" fill="#e5dfca"></rect><rect x="9" y="61" width="28" height="12" rx="3" fill="#fbbf24" stroke="#2b1e4a" stroke-width="0.8"></rect><rect x="42" y="61" width="28" height="12" rx="3" fill="#fffdf6" stroke="#c9c2ad" stroke-width="0.8"></rect></g><ellipse cx="408.20000000000005" cy="589.9" rx="126" ry="60" fill="#b7ae8e" opacity="0.42" filter="url(#soft)"></ellipse><g><polygon points="292,566 400,620 400,636 292,582" fill="#8f6ce9" stroke="#2b1e4a" stroke-width="1" stroke-linejoin="round"></polygon><polygon points="400,620 508,566 508,582 400,636" fill="#6d43c8" stroke="#2b1e4a" stroke-width="1" stroke-linejoin="round"></polygon><polygon points="400,512 508,566 400,620 292,566" fill="#b39df7" stroke="#2b1e4a" stroke-width="1" stroke-linejoin="round"></polygon><polyline points="292,566 400,512 508,566" fill="none" stroke="#e2d9fc" stroke-width="1.6" opacity="0.9" stroke-linecap="round"></polyline></g><polygon points="400,520.1 491.8,566 400,611.9 308.20000000000005,566" fill="#cbbcf9" stroke="#2b1e4a" stroke-width="0.8"></polygon><polygon points="400,520.1 491.8,566 400,611.9 308.20000000000005,566" fill="url(#dotT)" stroke="none"></polygon><polygon points="400,526.4 479.20000000000005,566 400,605.6 320.8,566" fill="none" stroke="#ffffff" stroke-width="1" stroke-dasharray="3 4" opacity="0.6"></polygon><g transform="matrix(0.9,-0.45,0,1,400,620)"><text x="60" y="12.5" fill="#fffdf6" font-size="10.5" font-family="var(--mono)" font-weight="600" letter-spacing="0.22em" text-anchor="middle">MOBILE</text></g><ellipse cx="408" cy="571" rx="34" ry="10" fill="#b7ae8e" opacity="0.28" filter="url(#soft)"></ellipse><g><polygon points="372.1,484.35 379.3,487.95000000000005 379.3,579.95 372.1,576.35" fill="#f1ebd8" stroke="#2b1e4a" stroke-width="1" stroke-linejoin="round"></polygon><polygon points="379.3,487.95000000000005 427.90000000000003,463.65 427.90000000000003,555.65 379.3,579.95" fill="#ddd4bb" stroke="#2b1e4a" stroke-width="1" stroke-linejoin="round"></polygon><polygon points="420.70000000000005,460.04999999999995 427.90000000000003,463.65 379.3,487.95000000000005 372.1,484.35" fill="#fffdf4" stroke="#2b1e4a" stroke-width="1" stroke-linejoin="round"></polygon><polyline points="372.1,484.35 420.70000000000005,460.04999999999995 427.90000000000003,463.65" fill="none" stroke="#ffffff" stroke-width="1.6" opacity="0.9" stroke-linecap="round"></polyline></g><g transform="matrix(0.9,-0.45,0,1,379.3,487.95000000000005)"><rect x="3.5" y="4" width="47" height="84" rx="5" fill="#fffdf6" stroke="#ddd4bb" stroke-width="1"></rect><rect x="16" y="7" width="22" height="4" rx="2" fill="#e5dfca"></rect><rect x="8" y="17" width="30" height="11" rx="5" fill="#f1ebd8"></rect><rect x="12" y="21.5" width="20" height="2.5" rx="1" fill="#c9c2ad"></rect><rect x="16" y="32" width="30" height="11" rx="5" fill="#f0a800"></rect><rect x="20" y="36.5" width="20" height="2.5" rx="1" fill="#fff3d1"></rect><rect x="8" y="47" width="26" height="11" rx="5" fill="#f1ebd8"></rect><rect x="12" y="51.5" width="16" height="2.5" rx="1" fill="#c9c2ad"></rect><rect x="8" y="74" width="38" height="9" rx="4.5" fill="#faf6e9" stroke="#ddd4bb" stroke-width="0.8"></rect><rect x="19" y="87" width="16" height="2.5" rx="1.25" fill="#d9d2ba"></rect></g><g class="backend active" data-id="claude"><g class="activeGlow"><ellipse cx="1085" cy="657" rx="105" ry="48" fill="#ea580c" opacity="0.5" filter="url(#soft)"></ellipse></g><ellipse cx="1093.2" cy="662.9" rx="126" ry="60" fill="#b7ae8e" opacity="0.42" filter="url(#soft)"></ellipse><g><polygon points="977,639 1085,693 1085,709 977,655" fill="#e9a92c" stroke="#2b1e4a" stroke-width="1" stroke-linejoin="round"></polygon><polygon points="1085,693 1193,639 1193,655 1085,709" fill="#c4821a" stroke="#2b1e4a" stroke-width="1" stroke-linejoin="round"></polygon><polygon points="1085,585 1193,639 1085,693 977,639" fill="#f7ca4d" stroke="#2b1e4a" stroke-width="1" stroke-linejoin="round"></polygon><polyline points="977,639 1085,585 1193,639" fill="none" stroke="#ffe9a8" stroke-width="1.6" opacity="0.9" stroke-linecap="round"></polyline></g><polygon points="1085,593.1 1176.8,639 1085,684.9000000000001 993.1999999999999,639" fill="#fbdc8a" stroke="#2b1e4a" stroke-width="0.8"></polygon><polygon points="1085,593.1 1176.8,639 1085,684.9000000000001 993.1999999999999,639" fill="url(#dotT)" stroke="none"></polygon><polygon points="1085,599.4 1164.2,639 1085,678.6 1005.8,639" fill="none" stroke="#ffffff" stroke-width="1" stroke-dasharray="3 4" opacity="0.6"></polygon><g transform="matrix(0.9,0.45,0,1,977,639)"><text x="60" y="12.5" fill="#fffdf6" font-size="9" font-family="var(--mono)" font-weight="600" letter-spacing="0.08em" text-anchor="middle">CLAUDE CODE</text></g><ellipse cx="1093" cy="644" rx="58" ry="15" fill="#b7ae8e" opacity="0.3" filter="url(#soft)"></ellipse><g class="lift"><g><polygon points="1032.8,526.1 1122.8,571.1 1122.8,665.1 1032.8,620.1" fill="#f1ebd8" stroke="#2b1e4a" stroke-width="1" stroke-linejoin="round"></polygon><polygon points="1122.8,571.1 1137.2,563.9 1137.2,657.9 1122.8,665.1" fill="#ddd4bb" stroke="#2b1e4a" stroke-width="1" stroke-linejoin="round"></polygon><polygon points="1047.2,518.9 1137.2,563.9 1122.8,571.1 1032.8,526.1" fill="#fffdf4" stroke="#2b1e4a" stroke-width="1" stroke-linejoin="round"></polygon><polyline points="1032.8,526.1 1047.2,518.9 1137.2,563.9" fill="none" stroke="#ffffff" stroke-width="1.6" opacity="0.9" stroke-linecap="round"></polyline></g><g transform="matrix(0.9,0.45,0,1,1032.8,526.1)"><rect x="0" y="88" width="100" height="6" fill="#D97757" stroke="#2b1e4a" stroke-width="0.8"></rect><rect x="7" y="7" width="86" height="76" rx="9" fill="#fffdf6" stroke="#ddd4bb" stroke-width="1"></rect><g transform="translate(50,42)"><g transform="translate(-26,-26) scale(2.1666666666666665)"><path d="m4.7144 15.9555 4.7174-2.6471.079-.2307-.079-.1275h-.2307l-.7893-.0486-2.6956-.0729-2.3375-.0971-2.2646-.1214-.5707-.1215-.5343-.7042.0546-.3522.4797-.3218.686.0608 1.5179.1032 2.2767.1578 1.6514.0972 2.4468.255h.3886l.0546-.1579-.1336-.0971-.1032-.0972L6.973 9.8356l-2.55-1.6879-1.3356-.9714-.7225-.4918-.3643-.4614-.1578-1.0078.6557-.7225.8803.0607.2246.0607.8925.686 1.9064 1.4754 2.4893 1.8336.3643.3035.1457-.1032.0182-.0728-.164-.2733-1.3539-2.4467-1.445-2.4893-.6435-1.032-.17-.6194c-.0607-.255-.1032-.4674-.1032-.7285L6.287.1335 6.6997 0l.9957.1336.419.3642.6192 1.4147 1.0018 2.2282 1.5543 3.0296.4553.8985.2429.8318.091.255h.1579v-.1457l.1275-1.706.2368-2.0947.2307-2.6957.0789-.7589.3764-.9107.7468-.4918.5828.2793.4797.686-.0668.4433-.2853 1.8517-.5586 2.9021-.3643 1.9429h.2125l.2429-.2429.9835-1.3053 1.6514-2.0643.7286-.8196.85-.9046.5464-.4311h1.0321l.759 1.1293-.34 1.1657-1.0625 1.3478-.8804 1.1414-1.2628 1.7-.7893 1.36.0729.1093.1882-.0183 2.8535-.607 1.5421-.2794 1.8396-.3157.8318.3886.091.3946-.3278.8075-1.967.4857-2.3072.4614-3.4364.8136-.0425.0304.0486.0607 1.5482.1457.6618.0364h1.621l3.0175.2247.7892.522.4736.6376-.079.4857-1.2142.6193-1.6393-.3886-3.825-.9107-1.3113-.3279h-.1822v.1093l1.0929 1.0686 2.0035 1.8092 2.5075 2.3314.1275.5768-.3218.4554-.34-.0486-2.2039-1.6575-.85-.7468-1.9246-1.621h-.1275v.17l.4432.6496 2.3436 3.5214.1214 1.0807-.17.3521-.6071.2125-.6679-.1214-1.3721-1.9246L14.38 17.959l-1.1414-1.9428-.1397.079-.674 7.2552-.3156.3703-.7286.2793-.6071-.4614-.3218-.7468.3218-1.4753.3886-1.9246.3157-1.53.2853-1.9004.17-.6314-.0121-.0425-.1397.0182-1.4328 1.9672-2.1796 2.9446-1.7243 1.8456-.4128.164-.7164-.3704.0667-.6618.4008-.5889 2.386-3.0357 1.4389-1.882.929-1.0868-.0062-.1579h-.0546l-6.3385 4.1164-1.1293.1457-.4857-.4554.0608-.7467.2307-.2429 1.9064-1.3114Z" fill="#D97757"></path></g></g><circle cx="85" cy="14" r="4" fill="#8bd68b" stroke="#2b1e4a" stroke-width="1" class="live"></circle></g><g class="faceGlow"><polygon points="1032.8,526.1 1122.8,571.1 1122.8,665.1 1032.8,620.1" fill="#fff" stroke="none"></polygon><polygon points="1122.8,571.1 1137.2,563.9 1137.2,657.9 1122.8,665.1" fill="#fff" stroke="none"></polygon><polygon points="1047.2,518.9 1137.2,563.9 1122.8,571.1 1032.8,526.1" fill="#fff" stroke="none"></polygon></g></g></g><ellipse cx="630.2" cy="707.9000000000001" rx="136.5" ry="65" fill="#b7ae8e" opacity="0.42" filter="url(#soft)"></ellipse><g><polygon points="505,684 622,742.5 622,758.5 505,700" fill="#8f6ce9" stroke="#2b1e4a" stroke-width="1" stroke-linejoin="round"></polygon><polygon points="622,742.5 739,684 739,700 622,758.5" fill="#6d43c8" stroke="#2b1e4a" stroke-width="1" stroke-linejoin="round"></polygon><polygon points="622,625.5 739,684 622,742.5 505,684" fill="#b39df7" stroke="#2b1e4a" stroke-width="1" stroke-linejoin="round"></polygon><polyline points="505,684 622,625.5 739,684" fill="none" stroke="#e2d9fc" stroke-width="1.6" opacity="0.9" stroke-linecap="round"></polyline></g><polygon points="622,633.6 722.8000000000001,684 622,734.4000000000001 521.2,684" fill="#cbbcf9" stroke="#2b1e4a" stroke-width="0.8"></polygon><polygon points="622,633.6 722.8000000000001,684 622,734.4000000000001 521.2,684" fill="url(#dotT)" stroke="none"></polygon><polygon points="622,639.9 710.2,684 622,728.1 533.8,684" fill="none" stroke="#ffffff" stroke-width="1" stroke-dasharray="3 4" opacity="0.6"></polygon><g transform="matrix(0.9,-0.45,0,1,622,742.5)"><text x="65" y="12.5" fill="#fffdf6" font-size="9" font-family="var(--mono)" font-weight="600" letter-spacing="0.08em" text-anchor="middle">THUNDERBOLT CLI</text></g><ellipse cx="630" cy="689" rx="58" ry="15" fill="#b7ae8e" opacity="0.28" filter="url(#soft)"></ellipse><g><polygon points="563.5,624.75 572.5,629.25 572.5,713.25 563.5,708.75" fill="#f1ebd8" stroke="#2b1e4a" stroke-width="1" stroke-linejoin="round"></polygon><polygon points="572.5,629.25 680.5,575.25 680.5,659.25 572.5,713.25" fill="#ddd4bb" stroke="#2b1e4a" stroke-width="1" stroke-linejoin="round"></polygon><polygon points="671.5,570.75 680.5,575.25 572.5,629.25 563.5,624.75" fill="#fffdf4" stroke="#2b1e4a" stroke-width="1" stroke-linejoin="round"></polygon><polyline points="563.5,624.75 671.5,570.75 680.5,575.25" fill="none" stroke="#ffffff" stroke-width="1.6" opacity="0.9" stroke-linecap="round"></polyline></g><g transform="matrix(0.9,-0.45,0,1,572.5,629.25)"><rect x="4" y="4" width="112" height="76" rx="4" fill="#1a1230" stroke="#2b1e4a" stroke-width="0.9"></rect><rect x="4" y="4" width="112" height="13" rx="4" fill="#2c1f52"></rect><circle cx="11" cy="10.5" r="2.4" fill="#ea580c"></circle><circle cx="19" cy="10.5" r="2.4" fill="#fbbf24"></circle><circle cx="27" cy="10.5" r="2.4" fill="#8b5cf6"></circle><text x="60" y="13" fill="#8f7fc4" font-size="7.5" font-family="var(--mono)" font-weight="600" letter-spacing="0.12em" text-anchor="middle">thunderbolt</text><text x="10" y="28" fill="#8f7fc4" font-size="8.5" font-family="var(--mono)" font-weight="600" letter-spacing="0.02em">$ </text><text x="20.8" y="28" fill="#fbbf24" font-size="8.5" font-family="var(--mono)" font-weight="600" letter-spacing="0.02em">tb sync</text><text x="58.60000000000001" y="28" fill="#c4b5fd" font-size="8.5" font-family="var(--mono)" font-weight="600" letter-spacing="0.02em"> --all</text><text x="10" y="40" fill="#e9e4f5" font-size="8.5" font-family="var(--mono)" font-weight="600" letter-spacing="0.02em">⚡ syncing 3 clients</text><text x="10" y="52" fill="#8bd68b" font-size="8.5" font-family="var(--mono)" font-weight="600" letter-spacing="0.02em">✓ done in 0.4s</text><text x="10" y="66" fill="#8f7fc4" font-size="8.5" font-family="var(--mono)" font-weight="600" letter-spacing="0.08em">$</text><rect x="18" y="59" width="5.5" height="9" fill="#fbbf24" class="cursor"></rect></g><ellipse cx="402" cy="405" rx="47.599999999999994" ry="23.799999999999997" fill="#b7ae8e" opacity="0.4" filter="url(#soft)"></ellipse><g><polygon points="361.4,368 392,383.3 392,413.3 361.4,398" fill="#8f6ce9" stroke="#2b1e4a" stroke-width="1" stroke-linejoin="round"></polygon><polygon points="392,383.3 422.6,368 422.6,398 392,413.3" fill="#6d43c8" stroke="#2b1e4a" stroke-width="1" stroke-linejoin="round"></polygon><polygon points="392,352.7 422.6,368 392,383.3 361.4,368" fill="#b39df7" stroke="#2b1e4a" stroke-width="1" stroke-linejoin="round"></polygon><polyline points="361.4,368 392,352.7 422.6,368" fill="none" stroke="#e2d9fc" stroke-width="1.6" opacity="0.9" stroke-linecap="round"></polyline></g><ellipse cx="465" cy="420.3" rx="42" ry="21" fill="#b7ae8e" opacity="0.4" filter="url(#soft)"></ellipse><g><polygon points="428,355.3 455,368.8 455,426.8 428,413.3" fill="#e9a92c" stroke="#2b1e4a" stroke-width="1" stroke-linejoin="round"></polygon><polygon points="455,368.8 482,355.3 482,413.3 455,426.8" fill="#c4821a" stroke="#2b1e4a" stroke-width="1" stroke-linejoin="round"></polygon><polygon points="455,341.8 482,355.3 455,368.8 428,355.3" fill="#f7ca4d" stroke="#2b1e4a" stroke-width="1" stroke-linejoin="round"></polygon><polyline points="428,355.3 455,341.8 482,355.3" fill="none" stroke="#ffe9a8" stroke-width="1.6" opacity="0.9" stroke-linecap="round"></polyline></g><ellipse cx="218" cy="749" rx="40" ry="18" fill="#b7ae8e" opacity="0.4" filter="url(#soft)"></ellipse><polygon points="208,690 164.80000000000007,742 208,763.6000000000001" fill="#f97316" stroke="#2b1e4a" stroke-width="1" stroke-linejoin="round"></polygon><polygon points="208,690 208,763.6000000000001 251.20000000000005,742" fill="#c2410c" stroke="#2b1e4a" stroke-width="1" stroke-linejoin="round"></polygon><ellipse cx="131.9999999999999" cy="653" rx="34" ry="15" fill="#b7ae8e" opacity="0.4" filter="url(#soft)"></ellipse><path d="M 91.99999999999989 646 A 30 30 0 0 1 151.9999999999999 646 A 30 12 0 0 1 91.99999999999989 646 Z" fill="#a78bfa" stroke="#2b1e4a" stroke-width="1"></path><path d="M 91.99999999999989 646 A 30 12 0 0 0 151.9999999999999 646" fill="none" stroke="#2b1e4a" stroke-width="1"></path><path d="M 1346 708 A 26 11.700000000000001 0 0 0 1398 708 L 1398 742 A 26 11.700000000000001 0 0 1 1346 742 Z" fill="#f0a800" stroke="#2b1e4a" stroke-width="1"></path><ellipse cx="1372" cy="708" rx="26" ry="11.700000000000001" fill="#fbbf24" stroke="#2b1e4a" stroke-width="1"></ellipse><path d="M 1406 740 A 18 8.1 0 0 0 1442 740 L 1442 760 A 18 8.1 0 0 1 1406 760 Z" fill="#8b5cf6" stroke="#2b1e4a" stroke-width="1"></path><ellipse cx="1424" cy="740" rx="18" ry="8.1" fill="#a78bfa" stroke="#2b1e4a" stroke-width="1"></ellipse><g><polygon points="1322.8,172 1348,184.60000000000002 1348,208.60000000000002 1322.8,196" fill="#8f6ce9" stroke="#2b1e4a" stroke-width="1" stroke-linejoin="round"></polygon><polygon points="1348,184.60000000000002 1373.1999999999998,172 1373.1999999999998,196 1348,208.60000000000002" fill="#6d43c8" stroke="#2b1e4a" stroke-width="1" stroke-linejoin="round"></polygon><polygon points="1348,159.4 1373.1999999999998,172 1348,184.60000000000002 1322.8,172" fill="#b39df7" stroke="#2b1e4a" stroke-width="1" stroke-linejoin="round"></polygon><polyline points="1322.8,172 1348,159.4 1373.1999999999998,172" fill="none" stroke="#e2d9fc" stroke-width="1.6" opacity="0.9" stroke-linecap="round"></polyline></g><g><polygon points="1271.7999999999997,222.00000000000003 1288,230.10000000000002 1288,244.10000000000002 1271.7999999999997,236.00000000000003" fill="#e9a92c" stroke="#2b1e4a" stroke-width="1" stroke-linejoin="round"></polygon><polygon points="1288,230.10000000000002 1304.1999999999998,222.00000000000003 1304.1999999999998,236.00000000000003 1288,244.10000000000002" fill="#c4821a" stroke="#2b1e4a" stroke-width="1" stroke-linejoin="round"></polygon><polygon points="1288,213.90000000000003 1304.1999999999998,222.00000000000003 1288,230.10000000000002 1271.7999999999997,222.00000000000003" fill="#f7ca4d" stroke="#2b1e4a" stroke-width="1" stroke-linejoin="round"></polygon><polyline points="1271.7999999999997,222.00000000000003 1288,213.90000000000003 1304.1999999999998,222.00000000000003" fill="none" stroke="#ffe9a8" stroke-width="1.6" opacity="0.9" stroke-linecap="round"></polyline></g><line x1="836" y1="330" x2="786" y2="372" stroke="#2b1e4a" stroke-width="1" opacity="0.45"></line><g transform="translate(824,296)"><g class="bob"><rect x="0" y="0" width="150" height="26" rx="7" fill="#fffdf6" stroke="#2b1e4a" stroke-width="1.1"></rect><rect x="6" y="6" width="14" height="14" rx="4" fill="#fbbf24" stroke="#2b1e4a" stroke-width="1"></rect><path d="M 13.4 8.5 L 15.6 8.5 L 13.9 11.6 L 15.9 11.6 L 11.6 17.5 L 12.9 13.4 L 10.9 13.4 Z" fill="#fffdf6"></path><text x="26" y="17.5" fill="#2b1e4a" font-size="11.5" font-family="var(--mono)" font-weight="600" letter-spacing="0.05em">agent: haystack</text></g></g><line x1="478" y1="516" x2="516" y2="545" stroke="#2b1e4a" stroke-width="1" opacity="0.45"></line><g transform="translate(438,488)"><g class="bob2"><rect x="0" y="0" width="79.6" height="26" rx="7" fill="#fffdf6" stroke="#2b1e4a" stroke-width="1.1"></rect><rect x="6" y="6" width="14" height="14" rx="4" fill="#8b5cf6" stroke="#2b1e4a" stroke-width="1"></rect><path d="M 13.4 8.5 L 15.6 8.5 L 13.9 11.6 L 15.9 11.6 L 11.6 17.5 L 12.9 13.4 L 10.9 13.4 Z" fill="#fffdf6"></path><text x="26" y="17.5" fill="#2b1e4a" font-size="11.5" font-family="var(--mono)" font-weight="600" letter-spacing="0.05em">sync ✓</text></g></g></g></g></svg>