<svg xmlns="http://www.w3.org/2000/svg" width="1024" height="1024" fill="none" viewBox="0 0 1024 1024"><mask id="a" width="463" height="800" x="281" y="112" maskUnits="userSpaceOnUse" style="mask-type:alpha"><path fill="#fbd500" d="M724.651 113.191 441.203 280.108a13.83 13.83 0 0 0-5.364 5.758L293.692 571.742c-4.114 8.273 1.902 17.987 11.139 17.987H429.66L281.721 902.068c-3.367 7.11 5.856 13.427 11.264 7.715l443.768-468.729c15.854-16.745 3.987-44.337-19.069-44.337H597.79l138.462-272.618c3.755-7.393-4.458-15.115-11.601-10.908"/></mask><g mask="url(#a)"><path fill="url(#b)" d="M724.652 113.194 441.204 280.111a13.82 13.82 0 0 0-5.364 5.758L293.693 571.744c-4.114 8.273 1.902 17.987 11.139 17.987h124.829l-147.939 312.34c-3.367 7.109 5.856 13.426 11.264 7.714l443.768-468.728c15.854-16.745 3.987-44.338-19.069-44.338H597.791l138.462-272.618c3.755-7.392-4.458-15.114-11.601-10.907"/><path fill="#fcbd15" fill-opacity=".5" d="m632.208 377.73 111.537-36.956 47.374 143.076-111.536 36.956z"/><path fill="#fcbd15" fill-opacity=".6" d="m709.327 346.638 117.285-7.043 9.028 150.45-117.285 7.042z"/><path fill="#fcbd15" d="M489.829 235.598 799.464 35.099 688.88 316.49H543.738zM634.97 570.311 236.177 984.357l125.788-573.841 255.727-56.606-32.484 65.681z"/><path fill="#fba720" d="m590.736 604.1-382.609 437.91 191.828-578.016 133.416-36.195z"/><path fill="#fb8900" d="M514.02 658.722 121.152 1104.01l184.036-607.105 114.42-27.971a13.83 13.83 0 0 1 7.652.314l101.966 34.001z"/><path fill="#fa4f00" d="M290.528 584.202v-40.144l85.616-14.89c-2.471-.824 2.529-.619 0 0l149.397-27.276z"/><path fill="#f95200" d="M415.185 763.808 65.807 1158.2l174.517-532.581 174.208-30.089c9.011-1.557 17.023 5.912 16.105 15.013z"/><path fill="#fde52d" d="M489.232 384.631 269.586 662.529l34.011-300.433 96.086-59.673c21.114-13.114 48.939-4.83 59.45 17.698z"/><path fill="#fdbd00" d="M449.175 430.675 230.544 711.418l34.011-300.433 96.184-59.735c21.08-13.091 48.858-4.859 59.407 17.606z"/><path fill="url(#c)" d="M596.003 395.116 772.509 64.222 650.045 254.487 529.551 429.405l181.741-7.86-435.829 498.072v9.611L760.93 395.116z"/><path fill="#ffe300" d="M299.994 544.077 447.308 264.57 328.816 524.055l231.379-32.035-25.62 7.208-234.581 380.418L526.569 501.63l8.006-2.402z"/><path fill="#ffb500" d="M413.519 481.098 309.005 619.437c6.352-21.372 92.1-126.787 103.071-141.516z"/><path fill="#ff9600" d="M412.183 477.895 193.552 761.403l34.011-300.433 96.599-59.992c20.932-13 48.512-4.983 59.221 17.214z"/><path fill="#ffa300" d="M373.586 404.446a41 41 0 0 1 6.829 6.612l-51.598 112.997 57.062-7.901-10.404 13.492-75.481 14.431z"/><path fill="#ffa300" d="M373.586 404.446a41 41 0 0 1 6.829 6.612l-51.598 112.997 57.062-7.901-10.404 13.492-75.481 14.431z"/><path fill="#ffc100" d="M373.586 404.446a41 41 0 0 1 6.829 6.612l-51.598 112.997 57.062-7.901-78.721 14.33-7.164 13.593z"/><path fill="url(#d)" d="M741.441 99.397 432.496 283.303 332.279 488.642l-30.986 65.076 35.792-65.076L467.476 315.85a41.4 41.4 0 0 1 8.639-8.506l186.539-136.295a110 110 0 0 1 64.895-21.181h33.211z"/><path fill="#6a00b1" d="m497.713 531.267-209.701 52.872-6.466 21.61 122.58-14.005-148.2 363.99z"/><path fill="#3b008b" d="m472.129 566.585-45.04 25.993-70.157 151.624 37.244-43.032zM496.958 528.173l-208.945 55.966-6.467 21.61 148.719-16.059z"/><path fill="#ce00cb" d="m525.078 501.862-240.52 84.347-19.416 16.757 191.512-37.498 31.102-28.347-210.98 380.966c92.109-157.957 156.192-258.269 248.302-416.225"/><path fill="#bf00b1" d="m525.078 501.862-240.52 84.347-19.415 16.757 191.512-37.498 31.102-28.347zc92.11-157.957-92.109 157.956 0 0"/></g><defs><linearGradient id="b" x1="607.398" x2="302.202" y1="319.835" y2="941.239" gradientUnits="userSpaceOnUse"><stop stop-color="#fc0"/><stop offset="1" stop-color="#fbd500"/></linearGradient><linearGradient id="c" x1="665.381" x2="305.1" y1="159.632" y2="902.078" gradientUnits="userSpaceOnUse"><stop offset=".307" stop-color="#fcfcfd"/><stop offset=".453" stop-color="#fce356"/><stop offset=".943" stop-color="#ffe300"/></linearGradient><radialGradient id="d" cx="0" cy="0" r="1" gradientTransform="matrix(-358.016 400.307 -305.518 -273.419 710.325 147.794)" gradientUnits="userSpaceOnUse"><stop stop-color="#fdd618"/><stop offset=".648" stop-color="#fdd929"/><stop offset=".685" stop-color="#fbf0c5"/><stop offset=".75" stop-color="#fbf2d5"/></radialGradient></defs></svg>