<svg xmlns="http://www.w3.org/2000/svg" width="802" height="1385" fill="none" viewBox="0 0 802 1385"><mask id="a" width="802" height="1385" x="0" y="0" maskUnits="userSpaceOnUse" style="mask-type:alpha"><path fill="#fbd500" d="M768.321 2.062 277.442 291.037a23.93 23.93 0 0 0-9.289 9.969L21.98 795.928c-7.124 14.323 3.294 31.14 19.29 31.14h216.182L1.248 1367.81c-5.831 12.3 10.143 23.24 19.508 13.35L789.28 569.676c27.456-28.991 6.904-76.76-33.025-76.76H548.622l239.792-471.97c6.502-12.798-7.722-26.167-20.093-18.884"/></mask><g mask="url(#a)"><path fill="url(#b)" d="M768.323 2.066 277.444 291.042a23.94 23.94 0 0 0-9.289 9.968L21.982 795.932c-7.124 14.323 3.294 31.14 19.29 31.14h216.182L1.25 1367.81c-5.831 12.31 10.143 23.24 19.508 13.36l768.525-811.49c27.455-28.991 6.904-76.76-33.025-76.76H548.624L788.415 20.95c6.503-12.798-7.721-26.166-20.092-18.884"/><path fill="#fcbd15" fill-opacity=".5" d="m608.229 460.045 193.16-63.979 82.044 247.7-193.161 63.979z"/><path fill="#fcbd15" fill-opacity=".6" d="m741.784 406.217 203.115-12.193 15.636 260.466-203.116 12.192z"/><path fill="#fcbd15" d="m361.654 213.98 536.231-347.115-191.511 487.157H455.015zM613.012 793.451-77.625 1510.27l217.841-993.464 442.872-98-56.256 113.71z"/><path fill="#fba720" d="m536.407 851.948-662.61 758.132L206.008 609.389l231.052-62.662z"/><path fill="#fb8900" d="m403.549 946.512-680.376 770.898L41.89 666.366l198.153-48.424a23.94 23.94 0 0 1 13.254.545l176.585 58.862z"/><path fill="#fa4f00" d="M16.5 817.5V748l148.272-25.779c-4.279-1.426 4.38-1.07 0 0L423.5 675z"/><path fill="#f95200" d="m232.385 1128.44-605.059 682.8 302.231-922.037 301.697-52.092c15.606-2.695 29.48 10.235 27.891 25.992z"/><path fill="#fde52d" d="m360.62 471.993-380.386 481.11 58.9-520.125 166.403-103.309c36.567-22.702 84.755-8.361 102.958 30.641z"/><path fill="#fdbd00" d="m291.249 551.707-378.63 486.033 58.901-520.123 166.574-103.415c36.507-22.665 84.613-8.412 102.882 30.481z"/><path fill="url(#c)" d="m545.528 490.144 305.676-572.86-212.085 329.397-208.672 302.827L745.188 535.9-9.588 1398.19v16.64l840.74-924.686z"/><path fill="#ffe300" d="m32.895 748.033 255.12-483.897L82.809 713.37l400.706-55.461-44.369 12.479L32.895 1328.99 425.28 674.547l13.865-4.159z"/><path fill="#ffb500" d="m229.501 639-181 239.5c11-37 159.5-219.5 178.5-245z"/><path fill="#ff9600" d="m227.186 633.455-378.629 490.825 58.9-520.126L74.75 500.293c36.251-22.506 84.015-8.627 102.559 29.802z"/><path fill="#ffa300" d="M160.343 506.297a71.2 71.2 0 0 1 11.826 11.447L82.809 713.37l98.823-13.679-18.019 23.358-130.718 24.984z"/><path fill="#ffa300" d="M160.343 506.297a71.2 71.2 0 0 1 11.826 11.447L82.809 713.37l98.823-13.678-18.019 23.357-130.718 24.984z"/><path fill="#ffc100" d="M160.343 506.297a71.2 71.2 0 0 1 11.826 11.447L82.809 713.37l98.823-13.678L45.302 724.5l-12.407 23.533z"/><path fill="url(#d)" d="M797.401-21.819 262.364 296.57 88.808 652.062 35.144 764.724 97.13 652.062l225.814-299.147a71.8 71.8 0 0 1 14.96-14.726L682.176 86.73a110 110 0 0 1 64.881-21.172h83.799z"/><path fill="#6a00b1" d="M375.307 725.856 12.145 817.39l-11.2 37.413 212.287-24.247-256.655 630.154z"/><path fill="#3b008b" d="m331 787-78 45-121.5 262.5L196 1020zM374 720.5 12.145 817.39l-11.2 37.413L258.5 827z"/><path fill="#ce00cb" d="M422.699 674.948 6.163 820.974l-33.625 29.011 331.664-64.919 53.863-49.075-365.38 659.549C152.202 1122.08 263.182 948.41 422.7 674.948"/><path fill="#bf00b1" d="M422.699 674.948 6.163 820.974l-33.625 29.011 331.664-64.919 53.863-49.075zc159.516-273.462-159.517 273.462 0 0"/></g><defs><linearGradient id="b" x1="565.261" x2="36.997" y1="359.814" y2="1435.76" gradientUnits="userSpaceOnUse"><stop stop-color="#fc0"/><stop offset="1" stop-color="#fbd500"/></linearGradient><linearGradient id="c" x1="665.679" x2="42.069" y1="82.463" y2="1367.98" gradientUnits="userSpaceOnUse"><stop offset=".307" stop-color="#fcfcfd"/><stop offset=".453" stop-color="#fce356"/><stop offset=".943" stop-color="#ffe300"/></linearGradient><radialGradient id="d" cx="0" cy="0" r="1" gradientTransform="rotate(131.817 357.902 197.212)scale(929.901 709.94)" gradientUnits="userSpaceOnUse"><stop stop-color="#fdd618"/><stop offset=".648" stop-color="#fdd929"/><stop offset=".685" stop-color="#fbf0c5"/><stop offset=".75" stop-color="#fbf2d5"/></radialGradient></defs></svg>